<svg xmlns="http://www.w3.org/2000/svg" xmlns:xlink="http://www.w3.org/1999/xlink" version="1.1" baseProfile="full" viewBox="0 0 200 200" width="200" height="200">
<g fill="black">
<path d="M 142.2 161.0 L 152.2 161.0 L 153.4 160.9 L 154.3 160.7 L 154.9 160.5 L 155.3 160.4 L 155.5 160.2 L 155.6 160.0 L 155.8 159.7 L 156.0 159.1 L 156.1 158.2 L 156.2 157.0 L 156.2 118.0 L 132.5 118.0 L 132.5 183.0 L 120.5 189.0 L 120.5 118.0 L 96.7 118.0 L 96.7 167.0 L 84.7 173.0 L 84.7 108.0 L 96.7 114.0 L 120.5 114.0 L 120.5 93.0 L 132.5 95.0 L 135.5 97.0 L 132.5 98.8 L 132.5 114.0 L 156.2 114.0 L 162.2 109.0 L 166.64392013549804 112.63593463897705 L 168.0 109.5 L 169.1 105.7 L 170.2 102.2 L 171.3 98.9 L 172.3 95.7 L 173.3 92.8 L 174.1 90.0 L 174.8 87.3 L 174.9 86.9 L 138.33783779144287 86.9 L 138.0 87.4 L 137.1111110687256 86.9 L 78.83636360168457 86.9 L 79.0 89.9 L 78.9 94.9 L 78.6 99.6 L 78.0 103.9 L 77.1 107.8 L 75.8 111.5 L 74.1 114.8 L 72.0 117.8 L 67.7 119.3 L 63.5 117.5 L 61.9 113.2 L 63.7 109.0 L 65.1 108.0 L 66.5 106.4 L 68.0 104.2 L 69.4 101.4 L 70.7 97.9 L 71.8 93.9 L 72.9 89.3 L 73.9 84.2 L 74.8 78.6 L 75.5 72.4 L 77.3 72.3 L 78.1 78.6 L 78.5448275566101 82.9 L 105.34444446563721 82.9 L 102.7 79.5 L 102.3 76.3 L 101.7 73.1 L 101.1 70.1 L 100.4 67.2 L 99.6 64.4 L 98.7 61.6 L 97.8 58.9 L 96.8 56.3 L 95.7 53.6 L 94.3 51.3 L 95.6 50.1 L 97.8 52.0 L 100.2 53.9 L 102.4 56.0 L 104.5 58.4 L 106.4 61.0 L 108.3 63.7 L 110.0 66.7 L 111.6 69.8 L 113.0 73.1 L 114.4 76.6 L 113.7 81.1 L 111.32142858505249 82.9 L 137.6 82.9 L 137.8 82.3 L 138.9 78.1 L 140.2 74.1 L 142.6 66.5 L 143.7 62.9 L 144.8 59.4 L 145.8 56.0 L 146.8 52.8 L 147.4093867301941 50.63329162597656 L 147.3 50.6 L 148.2 48.3 L 158.8 54.1 L 160.9 57.1 L 156.8558662414551 57.72753801345825 L 155.5 60.2 L 153.7 63.3 L 151.8 66.5 L 149.8 69.8 L 147.7 73.2 L 145.5 76.7 L 143.1 80.2 L 141.0942856788635 82.9 L 175.5 82.9 L 181.5 77.9 L 192.5 86.9 L 187.5 89.9 L 184.62835817337037 91.09651737213134 L 184.3 91.6 L 182.7 94.0 L 181.1 96.5 L 177.3 101.9 L 172.9 107.7 L 170.3 110.8 L 168.15736837387084 113.87421054840088 L 173.2 118.0 L 168.2 122.0 L 168.2 157.0 L 168.1 159.5 L 167.6 162.0 L 166.8 164.4 L 165.6 166.7 L 163.9 168.7 L 161.9 170.3 L 159.7 171.6 L 157.3 172.4 L 154.8 172.8 L 152.2 173.0 L 152.2 167.0 L 142.2 164.0 Z M 28.1 42.0 L 49.5 42.0 L 55.5 37.0 L 66.5 46.0 L 61.5 50.0 L 61.5 140.0 L 49.5 146.0 L 49.5 134.0 L 28.1 134.0 L 28.1 146.0 L 16.1 152.0 L 16.1 36.0 Z M 28.1 46.0 L 28.1 130.0 L 49.5 130.0 L 49.5 46.0 Z M 180.1 44.0 L 180.1 48.0 L 72.8 48.0 L 72.8 44.0 L 158.1 44.0 L 168.1 34.0 Z M 162.2 23.0 L 162.2 27.0 L 90.7 27.0 L 90.7 23.0 L 140.2 23.0 L 150.2 13.0 Z " />
</g>
</svg>
