<svg xmlns="http://www.w3.org/2000/svg" xmlns:xlink="http://www.w3.org/1999/xlink" version="1.1" baseProfile="full" viewBox="0 0 200 200" width="200" height="200">
<g fill="black">
<path d="M 63.0 175.9 L 75.0 175.9 L 76.2 175.8 L 77.1 175.7 L 77.7 175.5 L 78.0 175.3 L 78.2 175.2 L 78.4 175.0 L 78.5 174.6 L 78.7 174.1 L 78.9 173.1 L 79.0 171.9 L 79.0 157.4 L 38.0 157.4 L 38.0 182.0 L 26.0 188.0 L 26.0 110.0 L 38.0 116.0 L 79.0 116.0 L 85.0 111.0 L 96.0 120.0 L 91.0 124.0 L 91.0 171.9 L 90.8 174.5 L 90.4 177.0 L 89.6 179.4 L 88.3 181.6 L 86.7 183.7 L 84.7 185.3 L 82.4 186.5 L 80.0 187.3 L 77.5 187.8 L 75.0 187.9 L 75.0 181.9 L 63.0 178.9 Z M 183.0 158.4 L 185.0 158.4 L 183.0 175.4 L 186.0 177.4 L 188.0 180.4 L 186.0 183.4 L 183.0 185.4 L 127.0 185.4 L 124.5 185.3 L 122.1 185.0 L 119.8 184.3 L 117.6 183.2 L 115.6 181.7 L 113.9 179.9 L 112.6 177.7 L 111.7 175.4 L 111.2 172.9 L 111.0 170.4 L 111.0 99.8 L 123.0 105.8 L 165.0 105.8 L 165.0 88.0 L 123.0 88.0 L 123.0 91.0 L 111.0 97.0 L 111.0 49.9 L 123.0 51.9 L 126.0 53.9 L 123.0 55.7 L 123.0 66.0 L 163.0 66.0 L 173.0 56.0 L 185.0 66.0 L 185.0 70.0 L 123.0 70.0 L 123.0 84.0 L 165.0 84.0 L 171.0 79.0 L 182.0 88.0 L 177.0 92.0 L 177.0 109.8 L 165.71428575515748 115.44285717010499 L 175.0 123.8 L 175.0 127.8 L 123.0 127.8 L 123.0 140.1 L 156.8181818008423 140.1 L 165.0 131.1 L 175.0 140.1 L 175.0 144.1 L 123.0 144.1 L 123.0 156.5 L 156.8181818008423 156.5 L 165.0 147.5 L 175.0 156.5 L 175.0 160.5 L 123.0 160.5 L 123.0 170.4 L 122.9 171.6 L 123.0 172.5 L 123.1 173.2 L 123.3 174.0 L 123.5 174.3 L 123.9 174.6 L 124.6 174.9 L 125.6 175.2 L 127.0 175.4 L 178.0 175.4 Z M 38.0 138.7 L 38.0 153.4 L 79.0 153.4 L 79.0 138.7 Z M 38.0 120.0 L 38.0 134.7 L 79.0 134.7 L 79.0 120.0 Z M 123.0 109.8 L 123.0 123.8 L 156.8181818008423 123.8 L 165.0 114.8 L 165.0 109.8 Z M 100.0 69.2 L 100.0 73.2 L 78.02380952835082 73.2 L 87.9 79.3 L 89.8 82.4 L 85.4117829322815 82.85395345687866 L 84.6 84.0 L 82.8 86.3 L 80.8 88.6 L 78.8 91.0 L 76.6 93.4 L 74.3 95.7 L 71.8 98.1 L 69.2 100.4 L 85.81818180084228 100.4 L 94.0 91.4 L 104.0 100.4 L 104.0 104.4 L 14.0 104.4 L 14.0 100.4 L 66.03999996185303 100.4 L 67.0 98.8 L 68.4 95.6 L 69.8 92.6 L 71.2 89.7 L 72.4 86.9 L 73.5 84.1 L 74.6 81.5 L 76.4 76.5 L 76.82365341186524 75.04747409820557 L 76.7 75.0 L 77.03000001907348 74.33999996185302 L 77.1 74.1 L 77.14029846191406 74.11940298080444 L 77.6 73.2 L 18.0 73.2 L 18.0 69.2 L 81.81818180084228 69.2 L 90.0 60.2 Z M 37.5 92.0 L 36.9 89.9 L 36.3 87.9 L 35.4 85.8 L 34.5 83.8 L 33.4 81.7 L 32.2 79.6 L 31.0 77.4 L 29.2 75.6 L 30.3 74.2 L 32.5 75.6 L 34.9 76.8 L 37.2 78.2 L 39.3 79.8 L 41.3 81.5 L 43.2 83.3 L 45.0 85.3 L 46.7 87.4 L 48.2 89.7 L 49.6 92.1 L 49.3 96.6 L 46.0 99.7 L 41.4 99.4 L 38.3 96.1 L 38.0 94.0 Z M 32.1 38.8 L 31.7 42.9 L 31.0 46.8 L 29.8 50.5 L 28.2 53.9 L 26.1 57.0 L 23.5 59.8 L 20.4 62.2 L 15.8 62.5 L 12.3 59.6 L 11.9 55.1 L 14.8 51.5 L 16.8 50.8 L 18.7 49.7 L 20.5 48.2 L 22.2 46.3 L 23.7 44.0 L 25.2 41.1 L 26.5 37.8 L 27.6 34.0 L 28.6 29.7 L 29.1 25.0 L 30.9 24.9 L 31.5 29.8 L 31.793478298187257 32.5 L 94.0 32.5 L 94.0 11.8 L 106.0 13.8 L 109.0 15.8 L 106.0 17.6 L 106.0 32.5 L 171.0 32.5 L 171.6 32.0 L 172.1 31.0 L 172.47764186859132 31.268631839752196 L 177.0 27.5 L 188.0 36.5 L 183.0 39.5 L 177.93461542129518 41.610576915740964 L 176.3 43.0 L 174.1 44.9 L 171.8 46.8 L 169.3 48.8 L 166.6 50.8 L 163.7 52.9 L 160.6 55.0 L 157.6 57.5 L 156.3 56.2 L 158.7 53.2 L 160.7 50.0 L 162.7 47.1 L 164.5 44.3 L 166.1 41.7 L 167.6 39.3 L 169.0 37.0 L 169.27272729873658 36.5 L 32.047727298736575 36.5 Z M 82.0 56.7 L 82.0 60.7 L 36.0 60.7 L 36.0 56.7 L 63.81818180084228 56.7 L 72.0 47.7 Z " />
</g>
</svg>
