<svg xmlns="http://www.w3.org/2000/svg" xmlns:xlink="http://www.w3.org/1999/xlink" version="1.1" baseProfile="full" viewBox="0 0 200 200" width="200" height="200">
<g fill="black">
<path d="M 159.4 181.2 L 151.8 177.9 L 144.4 174.4 L 137.3 170.5 L 130.4 166.3 L 123.8 161.7 L 117.5 156.8 L 111.6 151.4 L 106.66896553039551 146.2 L 106.0 146.2 L 106.0 182.8 L 94.0 188.8 L 94.0 152.02686567306517 L 91.4 154.2 L 84.3 159.4 L 76.7 164.3 L 68.8 168.8 L 60.4 172.9 L 51.6 176.7 L 42.4 180.1 L 32.8 183.1 L 22.7 185.6 L 12.2 187.6 L 11.7 185.9 L 21.6 182.0 L 31.0 178.1 L 39.9 174.0 L 48.5 169.8 L 56.5 165.4 L 64.1 160.8 L 71.2 155.9 L 77.9 150.8 L 83.28113203048706 146.2 L 16.0 146.2 L 16.0 142.2 L 94.0 142.2 L 94.0 129.6 L 54.0 129.6 L 42.0 135.6 L 42.0 86.3 L 54.0 92.3 L 146.0 92.3 L 152.0 87.3 L 163.0 96.3 L 158.0 100.3 L 158.0 129.6 L 146.0 135.6 L 146.0 129.6 L 106.0 129.6 L 106.0 142.2 L 165.8181818008423 142.2 L 174.0 133.2 L 184.0 142.2 L 184.0 146.2 L 110.78717947006226 146.2 L 114.1 148.1 L 120.9 151.9 L 127.7 155.6 L 134.5 159.0 L 141.5 162.2 L 148.6 165.1 L 155.9 167.7 L 163.3 170.0 L 170.8 172.1 L 178.6 173.9 L 187.0 176.0 L 175.3 186.7 L 167.3 184.1 Z M 54.0 113.0 L 54.0 125.6 L 94.0 125.6 L 94.0 113.0 Z M 106.0 113.0 L 106.0 125.6 L 146.0 125.6 L 146.0 113.0 Z M 54.0 96.3 L 54.0 109.0 L 94.0 109.0 L 94.0 96.3 Z M 106.0 96.3 L 106.0 109.0 L 146.0 109.0 L 146.0 96.3 Z M 13.3 102.4 L 12.9 97.8 L 15.7 94.2 L 17.7 93.4 L 19.5 92.2 L 21.4 90.6 L 23.1 88.6 L 24.7 86.0 L 26.2 83.0 L 27.4 79.5 L 28.6 75.4 L 29.6 70.9 L 30.1 65.9 L 31.9 65.9 L 32.5 71.0 L 32.80208330154419 73.9 L 170.0 73.9 L 176.0 68.9 L 187.0 77.9 L 182.0 80.9 L 177.80431652069092 82.64820146560669 L 177.0 83.7 L 175.5 85.5 L 173.8 87.5 L 172.0 89.7 L 170.0 92.1 L 167.7 94.7 L 165.7 97.7 L 164.2 96.8 L 165.7 93.6 L 166.6 90.3 L 167.5 87.3 L 168.3 84.6 L 168.9 82.2 L 169.5 79.9 L 169.9 78.0 L 169.91764707565306 77.9 L 33.0456521987915 77.9 L 33.1 80.4 L 32.8 84.7 L 32.0 88.8 L 30.9 92.6 L 29.3 96.1 L 27.2 99.4 L 24.6 102.3 L 21.5 104.7 L 16.9 105.2 Z M 12.9 56.3 L 145.2 56.3 L 145.2 39.8 L 36.8 39.8 L 36.8 35.8 L 145.2 35.8 L 145.2 21.3 L 32.8 21.3 L 32.8 17.3 L 145.2 17.3 L 151.2 12.3 L 162.2 21.3 L 157.2 25.3 L 157.2 56.3 L 168.8181818008423 56.3 L 177.0 47.3 L 187.0 56.3 L 187.0 60.3 L 12.9 60.3 Z " />
</g>
</svg>
