<svg xmlns="http://www.w3.org/2000/svg" xmlns:xlink="http://www.w3.org/1999/xlink" version="1.1" baseProfile="full" viewBox="0 0 200 200" width="200" height="200">
<g fill="black">
<path d="M 50.0 16.0 L 53.0 18.0 L 50.0 19.8 L 50.0 183.0 L 38.0 189.0 L 38.0 14.0 Z M 115.8 153.0 L 116.7 156.5 L 112.95671644210816 155.84328355789185 L 111.6 157.2 L 107.3 161.2 L 102.7 165.1 L 98.0 168.9 L 93.2 172.6 L 88.1 176.1 L 82.9 179.4 L 77.4 182.6 L 71.7 185.5 L 65.7 188.2 L 64.8 186.6 L 69.6 182.4 L 74.3 178.2 L 79.0 174.2 L 83.4 170.1 L 87.7 166.0 L 91.9 162.0 L 95.8 157.8 L 99.6 153.6 L 103.3 149.4 L 106.7 145.1 L 106.73868227005005 145.13358125686645 L 107.1 144.7 Z M 163.3 175.9 L 160.5 172.2 L 157.5 168.5 L 154.3 165.0 L 150.8 161.6 L 147.1 158.3 L 143.1 155.0 L 139.0 151.7 L 134.6 148.3 L 135.4 146.7 L 140.8 148.4 L 145.9 150.4 L 150.8 152.9 L 155.4 155.6 L 159.8 158.6 L 164.0 161.9 L 167.9 165.4 L 171.6 169.1 L 175.0 173.0 L 178.2 177.2 L 179.0 181.7 L 176.4 185.5 L 171.9 186.2 L 168.1 183.7 L 165.8 179.7 Z M 188.9 135.0 L 188.9 139.0 L 63.1 139.0 L 63.1 135.0 L 166.9 135.0 L 176.9 125.0 Z M 98.0 25.4 L 153.9 25.4 L 159.9 20.4 L 170.9 29.4 L 165.9 33.4 L 165.9 118.3 L 153.9 124.3 L 153.9 114.3 L 98.0 114.3 L 98.0 121.3 L 86.0 127.3 L 86.0 19.4 Z M 98.0 84.8 L 98.0 110.3 L 153.9 110.3 L 153.9 84.8 Z M 15.2 101.4 L 12.8 97.5 L 13.7 93.1 L 15.1 91.5 L 16.6 89.4 L 18.1 86.8 L 19.5 83.8 L 20.9 80.3 L 22.4 76.4 L 23.8 72.2 L 25.2 67.5 L 26.6 62.4 L 28.0 56.9 L 29.7 57.0 L 29.8 62.8 L 29.9 68.2 L 29.7 73.2 L 29.3 77.9 L 28.8 82.3 L 28.1 86.4 L 27.2 90.2 L 26.2 93.7 L 25.0 96.9 L 23.6 99.9 L 19.7 102.3 Z M 64.2 78.3 L 63.5 75.6 L 62.6 72.7 L 61.6 69.9 L 60.4 66.9 L 59.0 63.8 L 57.4 60.7 L 55.8 57.4 L 53.7 54.3 L 55.0 53.1 L 57.9 55.7 L 60.8 58.1 L 63.5 60.6 L 66.0 63.3 L 68.3 66.0 L 70.3 68.7 L 72.2 71.6 L 73.9 74.5 L 75.4 77.5 L 76.7 80.5 L 76.1 85.0 L 72.5 87.9 L 67.9 87.2 L 65.1 83.6 L 64.8 81.0 Z M 98.0 57.1 L 98.0 80.8 L 153.9 80.8 L 153.9 57.1 Z M 98.0 29.4 L 98.0 53.1 L 153.9 53.1 L 153.9 29.4 Z " />
</g>
</svg>
