<svg xmlns="http://www.w3.org/2000/svg" xmlns:xlink="http://www.w3.org/1999/xlink" version="1.1" baseProfile="full" viewBox="0 0 200 200" width="200" height="200">
<g fill="black">
<path d="M 18.6 175.0 L 32.6 175.0 L 33.8 174.9 L 34.7 174.7 L 35.6 174.4 L 36.0 174.0 L 36.3 173.1 L 36.5 172.2 L 36.6 171.0 L 36.6 116.23454542160034 L 35.2 117.1 L 29.7 120.4 L 24.1 123.6 L 22.02823152542114 124.79944486618042 L 21.6 128.6 L 18.4 126.9 L 11.2 117.0 L 13.0 116.1 L 18.9 113.5 L 24.7 110.9 L 36.3 105.5 L 36.6 105.36551723480224 L 36.6 57.0 L 14.2 57.0 L 14.2 53.0 L 36.6 53.0 L 36.6 14.0 L 48.6 16.0 L 51.6 18.0 L 48.6 19.8 L 48.6 53.0 L 53.418181800842284 53.0 L 61.6 44.0 L 71.6 53.0 L 71.6 57.0 L 48.6 57.0 L 48.6 99.84137935638428 L 59.4 95.0 L 65.2 92.5 L 71.1 90.2 L 72.0 91.7 L 67.1 95.8 L 62.0 99.6 L 56.8 103.3 L 51.5 106.8 L 48.6 108.67962961196899 L 48.6 171.0 L 48.4 173.5 L 48.0 176.0 L 47.2 178.4 L 45.9 180.7 L 44.3 182.7 L 42.3 184.3 L 40.0 185.6 L 37.6 186.4 L 35.1 186.8 L 32.6 187.0 L 32.6 181.0 L 18.6 178.0 Z M 70.1 176.1 L 122.5 176.1 L 122.5 157.1 L 81.2 157.1 L 81.2 153.1 L 122.5 153.1 L 122.5 135.4 L 96.2 135.4 L 96.2 138.4 L 84.2 144.4 L 84.2 79.6 L 96.2 85.6 L 160.7 85.6 L 166.7 80.6 L 177.7 89.6 L 172.7 93.6 L 172.7 137.4 L 160.7 143.4 L 160.7 135.4 L 134.5 135.4 L 134.5 153.1 L 157.51818180084229 153.1 L 165.7 144.1 L 175.7 153.1 L 175.7 157.1 L 134.5 157.1 L 134.5 176.1 L 164.8 176.1 L 174.8 166.1 L 186.8 176.1 L 186.8 180.1 L 70.1 180.1 Z M 96.2 112.5 L 96.2 131.4 L 122.5 131.4 L 122.5 112.5 Z M 134.5 112.5 L 134.5 131.4 L 160.7 131.4 L 160.7 112.5 Z M 96.2 89.6 L 96.2 108.5 L 122.5 108.5 L 122.5 89.6 Z M 134.5 89.6 L 134.5 108.5 L 160.7 108.5 L 160.7 89.6 Z M 183.4 36.0 L 183.4 40.0 L 154.028125 40.0 L 161.2 44.5 L 163.1 47.6 L 158.80417585372925 47.970329666137694 L 157.9 49.3 L 156.1 51.7 L 154.2 54.3 L 152.2 56.9 L 147.8 62.1 L 145.4 64.8 L 142.8 67.5 L 142.3689655303955 68.0 L 169.3181818008423 68.0 L 177.5 59.0 L 187.5 68.0 L 187.5 72.0 L 69.4 72.0 L 69.4 68.0 L 139.55 68.0 L 140.5 66.1 L 141.7 62.6 L 143.0 59.3 L 144.3 56.1 L 145.5 53.0 L 146.6 50.0 L 147.7 47.2 L 148.7 44.4 L 149.6 41.8 L 150.08255529403687 40.231695365905765 L 150.0 40.2 L 150.09523811340333 40.0 L 73.5 40.0 L 73.5 36.0 L 165.21818180084227 36.0 L 173.4 27.0 Z M 105.2 57.8 L 104.9 55.9 L 104.5 54.0 L 104.0 52.0 L 103.3 50.0 L 102.4 47.8 L 101.4 45.6 L 100.3 43.3 L 98.7 41.3 L 99.9 40.0 L 102.0 41.7 L 104.3 43.2 L 106.4 44.7 L 108.4 46.4 L 110.2 48.2 L 111.9 50.1 L 113.4 52.1 L 114.8 54.2 L 116.0 56.5 L 117.0 58.8 L 116.1 63.2 L 112.4 65.9 L 107.9 65.0 L 105.3 61.3 L 105.3 59.6 Z M 160.4 22.0 L 160.4 26.0 L 96.5 26.0 L 96.5 22.0 L 138.4 22.0 L 148.4 12.0 Z " />
</g>
</svg>
