<svg xmlns="http://www.w3.org/2000/svg" xmlns:xlink="http://www.w3.org/1999/xlink" version="1.1" baseProfile="full" viewBox="0 0 200 200" width="200" height="200">
<g fill="black">
<path d="M 31.6 22.0 L 50.8 22.0 L 56.8 17.0 L 67.8 26.0 L 62.8 30.0 L 62.8 171.0 L 62.7 173.5 L 62.2 176.0 L 61.4 178.4 L 60.2 180.7 L 58.6 182.7 L 56.6 184.3 L 54.3 185.6 L 51.9 186.4 L 49.4 186.8 L 46.8 187.0 L 46.8 181.0 L 32.8 178.0 L 32.8 175.0 L 46.8 175.0 L 48.1 174.9 L 49.0 174.7 L 49.9 174.4 L 50.1 174.2 L 50.2 174.0 L 50.4 173.7 L 50.6 173.1 L 50.8 172.2 L 50.8 114.0 L 31.6 114.0 L 31.6 118.0 L 31.1 128.7 L 30.4 138.6 L 29.5 147.8 L 28.2 156.1 L 26.6 163.7 L 24.8 170.4 L 22.6 176.4 L 20.0 181.4 L 17.1 185.5 L 13.8 188.5 L 12.4 187.4 L 13.8 183.6 L 15.1 179.3 L 16.3 174.3 L 17.4 168.7 L 18.3 162.2 L 19.0 155.0 L 19.4 146.9 L 19.7 138.1 L 19.8 128.4 L 19.6 118.0 L 19.6 16.0 Z M 98.6 176.5 L 108.6 176.5 L 109.5 176.4 L 110.2 176.3 L 110.8 176.0 L 111.2 175.6 L 111.4 175.1 L 111.6 174.4 L 111.8 173.3 L 111.8 150.0 L 87.6 150.0 L 87.6 183.0 L 75.6 189.0 L 75.6 92.0 L 87.6 98.0 L 111.8 98.0 L 117.3 93.0 L 127.8 102.0 L 122.8 105.5 L 122.8 172.0 L 122.7 174.4 L 122.3 176.7 L 121.7 179.0 L 120.7 181.1 L 119.3 183.1 L 117.5 184.7 L 115.5 186.0 L 113.2 186.8 L 110.9 187.3 L 108.6 187.5 L 108.6 182.0 L 98.6 179.2 Z M 183.5 153.5 L 185.5 153.5 L 183.5 174.5 L 186.8 176.7 L 189.0 180.0 L 186.8 183.3 L 183.5 185.5 L 148.9 185.5 L 146.4 185.3 L 144.0 184.9 L 141.7 184.1 L 139.5 182.9 L 137.5 181.3 L 135.9 179.4 L 134.8 177.2 L 134.0 174.9 L 133.6 172.5 L 133.4 170.0 L 133.4 79.5 L 144.4 85.0 L 169.4 85.0 L 169.4 61.0 L 144.9 61.0 L 144.9 64.0 L 132.9 70.0 L 132.9 13.0 L 144.9 15.0 L 147.9 17.0 L 144.9 18.8 L 144.9 34.0 L 166.61818180084228 34.0 L 174.8 25.0 L 184.8 34.0 L 184.8 38.0 L 144.9 38.0 L 144.9 57.0 L 169.4 57.0 L 175.4 52.0 L 186.4 61.0 L 181.4 65.0 L 181.4 91.0 L 169.4 97.0 L 169.4 89.0 L 144.4 89.0 L 144.4 108.0 L 159.9181818008423 108.0 L 168.1 99.0 L 178.1 108.0 L 178.1 112.0 L 144.4 112.0 L 144.4 129.0 L 159.9181818008423 129.0 L 168.1 120.0 L 178.1 129.0 L 178.1 133.0 L 144.4 133.0 L 144.4 150.0 L 159.9181818008423 150.0 L 168.1 141.0 L 178.1 150.0 L 178.1 154.0 L 144.4 154.0 L 144.4 170.0 L 144.5 171.2 L 144.7 172.2 L 144.9 172.9 L 145.1 173.3 L 145.3 173.6 L 145.6 173.8 L 146.0 174.0 L 146.7 174.2 L 147.6 174.4 L 148.9 174.5 L 178.0 174.5 Z M 87.6 126.0 L 87.6 146.0 L 111.8 146.0 L 111.8 126.0 Z M 87.6 102.0 L 87.6 122.0 L 111.8 122.0 L 111.8 102.0 Z M 31.6 69.0 L 31.6 110.0 L 50.8 110.0 L 50.8 69.0 Z M 121.5 48.4 L 124.0 51.1 L 120.05287961959839 52.22774868011474 L 119.1 54.5 L 117.7 57.6 L 116.3 60.8 L 114.7 63.9 L 113.1 67.2 L 111.3 70.4 L 109.4 73.7 L 107.3 76.9 L 106.6529411315918 78.0 L 115.9777777671814 78.0 L 122.2 71.0 L 130.2 78.0 L 130.2 82.0 L 69.4 82.0 L 69.4 78.0 L 104.07894735336303 78.0 L 104.6 75.8 L 106.0 68.4 L 106.7 64.9 L 107.3 61.4 L 108.0 58.1 L 108.5 54.8 L 109.0 51.6 L 109.5 48.5 L 109.7694489479065 46.41177101135254 L 109.7 46.4 L 109.8692307472229 45.6384614944458 L 109.9 45.4 L 109.92101449966431 45.40543479919434 L 110.3 43.7 Z M 83.5 65.5 L 83.2 62.7 L 82.9 60.1 L 82.5 57.5 L 81.5 52.5 L 80.9 50.0 L 80.4 47.5 L 79.3 45.3 L 80.8 44.3 L 82.5 46.2 L 84.4 48.1 L 86.2 50.2 L 87.9 52.4 L 89.4 54.8 L 90.9 57.4 L 92.2 60.1 L 93.5 62.9 L 94.6 65.8 L 95.7 68.9 L 94.7 73.4 L 90.9 75.9 L 86.4 74.9 L 83.9 71.1 L 83.7 68.2 Z M 31.6 26.0 L 31.6 65.0 L 50.8 65.0 L 50.8 26.0 Z M 127.5 38.0 L 127.5 42.0 L 72.1 42.0 L 72.1 38.0 L 105.5 38.0 L 115.5 28.0 Z M 115.3 22.0 L 115.3 26.0 L 84.3 26.0 L 84.3 22.0 L 101.0777777671814 22.0 L 107.3 15.0 Z " />
</g>
</svg>
