<svg xmlns="http://www.w3.org/2000/svg" xmlns:xlink="http://www.w3.org/1999/xlink" version="1.1" baseProfile="full" viewBox="0 0 200 200" width="200" height="200">
<g fill="black">
<path d="M 166.5 176.7 L 165.0 178.7 L 163.3 180.4 L 161.3 182.0 L 159.2 183.2 L 156.9 184.2 L 154.5 184.8 L 152.1 185.2 L 149.6 185.4 L 149.6 179.4 L 129.6 176.4 L 129.6 173.4 L 149.6 173.4 L 150.9 173.3 L 152.0 173.1 L 153.0 172.8 L 153.8 172.5 L 154.6 172.1 L 155.2 171.5 L 155.9 170.9 L 156.5 170.1 L 157.6 167.9 L 158.9 163.9 L 160.1 159.2 L 161.1 153.7 L 161.8 147.5 L 162.4 140.6 L 162.8 132.9 L 162.9 124.6 L 162.9 115.5 L 162.6 105.7 L 162.54139537811278 104.67441864013672 L 162.0 104.9 L 162.0 96.9 L 134.5253846168518 96.9 L 134.1 104.8 L 132.5 117.2 L 130.0 128.9 L 126.6 139.9 L 122.4 150.1 L 117.3 159.6 L 111.3 168.4 L 104.4 176.3 L 96.6 183.3 L 88.0 189.3 L 86.9 187.9 L 94.0 180.5 L 100.3 172.8 L 105.9 164.6 L 110.6 156.0 L 114.6 146.8 L 117.8 137.0 L 120.2 126.7 L 121.8 115.7 L 122.7 104.1 L 122.8 91.8 L 122.8 63.9 L 99.8 63.9 L 99.8 92.8 L 99.73406591415406 92.8989010810852 L 99.8 92.9 L 99.1 105.2 L 97.8 116.9 L 96.0 127.9 L 93.6 138.3 L 90.8 148.1 L 87.3 157.2 L 83.4 165.6 L 78.9 173.2 L 73.7 180.1 L 68.0 186.1 L 66.6 185.0 L 70.6 178.0 L 74.2 170.6 L 77.4 162.9 L 80.2 154.6 L 82.6 145.7 L 84.5 136.3 L 86.0 126.3 L 87.1 115.7 L 87.7 104.5 L 87.8 92.7 L 87.8 21.0 L 99.8 27.0 L 164.1 27.0 L 174.1 17.0 L 186.1 27.0 L 186.1 31.0 L 99.8 31.0 L 99.8 59.9 L 166.2 59.9 L 176.2 49.9 L 188.2 59.9 L 188.2 63.9 L 134.8 63.9 L 134.8 91.8 L 134.74076919555665 92.9 L 162.0 92.9 L 168.0 87.9 L 179.0 96.9 L 174.2454545021057 99.75272731781006 L 174.5 105.2 L 174.9 115.2 L 174.9 124.6 L 174.8 133.3 L 174.4 141.4 L 173.8 148.8 L 172.9 155.5 L 171.8 161.7 L 170.4 167.2 L 168.8 172.2 L 167.7 174.5 Z M 70.0 105.0 L 68.5 102.7 L 66.8 100.4 L 64.9 98.2 L 62.8 95.9 L 60.5 93.7 L 58.1 91.4 L 56.2 89.7192307472229 L 56.2 182.0 L 44.2 188.0 L 44.2 94.10909090042114 L 42.1 99.9 L 38.4 108.7 L 34.4 117.3 L 30.1 125.6 L 25.4 133.6 L 20.2 141.2 L 14.5 148.4 L 13.0 147.5 L 16.9 139.3 L 20.6 131.0 L 24.2 122.7 L 27.5 114.3 L 30.5 105.7 L 33.3 96.9 L 35.8 87.9 L 38.0 78.8 L 39.9 69.4 L 41.04285717010498 63.0 L 13.8 63.0 L 13.8 59.0 L 44.2 59.0 L 44.2 14.0 L 56.2 16.0 L 59.2 18.0 L 56.2 19.8 L 56.2 59.0 L 61.9 59.0 L 71.9 49.0 L 83.9 59.0 L 83.9 63.0 L 56.2 63.0 L 56.2 86.53823528289794 L 56.7 86.7 L 60.2 87.8 L 63.5 89.0 L 66.7 90.5 L 69.7 92.2 L 72.6 94.0 L 75.3 96.1 L 77.9 98.3 L 80.3 100.6 L 82.6 103.1 L 83.5 107.6 L 81.0 111.4 L 76.5 112.3 L 72.6 109.8 L 71.4 107.4 Z " />
</g>
</svg>
