<svg xmlns="http://www.w3.org/2000/svg" xmlns:xlink="http://www.w3.org/1999/xlink" version="1.1" baseProfile="full" viewBox="0 0 200 200" width="200" height="200">
<g fill="black">
<path d="M 160.3 173.3 L 152.1 169.2 L 144.1 164.9 L 136.6 160.3 L 129.4 155.5 L 122.6 150.3 L 116.2 144.8 L 110.3 138.9 L 106.0 133.77307691574097 L 106.0 181.6 L 94.0 187.6 L 94.0 139.92258062362671 L 92.4 141.6 L 85.7 147.7 L 78.4 153.3 L 70.7 158.6 L 62.4 163.4 L 53.6 167.9 L 44.3 171.9 L 34.5 175.5 L 24.1 178.5 L 13.2 181.0 L 12.7 179.3 L 22.9 174.9 L 32.5 170.5 L 41.5 165.9 L 50.1 161.2 L 58.0 156.2 L 65.4 150.9 L 72.2 145.4 L 78.5 139.7 L 84.2 133.7 L 84.51666669845581 133.3 L 18.0 133.3 L 18.0 129.3 L 94.0 129.3 L 94.0 108.9 L 106.0 110.9 L 109.0 112.9 L 106.0 114.7 L 106.0 129.3 L 160.0 129.3 L 170.0 119.3 L 182.0 129.3 L 182.0 133.3 L 109.27777776718139 133.3 L 113.0 135.8 L 119.8 140.1 L 126.7 144.4 L 133.8 148.4 L 141.2 152.2 L 148.8 155.8 L 156.7 159.2 L 164.8 162.4 L 173.3 165.3 L 182.0 168.0 L 189.5 170.4 L 177.9 180.5 L 168.9 177.0 Z M 42.8 112.1 L 38.9 109.7 L 37.7 105.3 L 38.2 102.5 L 38.3 100.0 L 37.8 97.6 L 36.9 95.3 L 35.2 92.9 L 32.7 90.5 L 29.4 88.2 L 25.2 86.0 L 20.2 83.9 L 14.4 82.1 L 14.6 80.4 L 20.9 80.9 L 26.6 81.6 L 31.7 82.8 L 35.712691116333005 84.37018346786499 L 36.5 83.5 L 39.0 80.5 L 41.9 76.8 L 45.5 72.4 L 49.6 67.2 L 54.2 61.3 L 59.5 54.6 L 65.5 47.3 L 72.2 39.3 L 73.6 40.4 L 68.6 49.4 L 64.0 57.6 L 59.7 65.0 L 55.8 71.5 L 52.5 77.2 L 49.6 82.1 L 47.2 86.2 L 45.4 89.5 L 44.65977010726929 90.87471265792847 L 46.6 93.3 L 48.5 97.5 L 49.5 102.1 L 49.6 107.0 L 47.2 110.9 Z M 71.3 102.2 L 83.2 102.2 L 83.2 27.0 L 71.3 27.0 L 71.3 23.0 L 161.7 23.0 L 171.7 13.0 L 183.7 23.0 L 183.7 27.0 L 95.2 27.0 L 95.2 47.2 L 160.7 47.2 L 166.7 42.2 L 177.7 51.2 L 172.7 55.2 L 172.7 82.2 L 160.7 88.2 L 160.7 78.2 L 95.2 78.2 L 95.2 102.2 L 166.4 102.2 L 176.4 92.2 L 188.4 102.2 L 188.4 106.2 L 71.3 106.2 Z M 95.2 51.2 L 95.2 74.2 L 160.7 74.2 L 160.7 51.2 Z M 34.3 57.2 L 32.8 56.0 L 30.9 54.6 L 28.6 53.3 L 26.1 51.9 L 23.2 50.5 L 20.0 49.1 L 16.5 47.5 L 12.7 46.4 L 13.0 44.6 L 17.0 45.0 L 20.9 45.1 L 24.6 45.3 L 28.0 45.7 L 31.1 46.2 L 34.1 46.7 L 36.8 47.4 L 39.4 48.2 L 41.7 49.2 L 44.0 50.4 L 46.0 54.5 L 44.7 58.8 L 40.6 60.9 L 36.2 59.5 L 35.4 58.5 Z M 51.1 31.0 L 49.7 29.8 L 47.9 28.5 L 45.7 27.1 L 43.2 25.8 L 40.4 24.3 L 37.3 22.8 L 33.8 21.2 L 30.0 20.0 L 30.3 18.3 L 34.4 18.8 L 38.3 18.9 L 41.8 19.2 L 45.2 19.6 L 48.3 20.1 L 51.1 20.6 L 53.7 21.3 L 56.2 22.0 L 58.4 22.9 L 60.5 24.0 L 62.5 28.1 L 61.1 32.5 L 57.0 34.5 L 52.7 33.1 L 52.1 32.1 Z " />
</g>
</svg>
