<svg xmlns="http://www.w3.org/2000/svg" xmlns:xlink="http://www.w3.org/1999/xlink" version="1.1" baseProfile="full" viewBox="0 0 200 200" width="200" height="200">
<g fill="black">
<path d="M 58.5 153.1 L 57.4 149.7 L 56.1 146.2 L 54.5 142.5 L 52.7 138.7 L 50.6 134.8 L 48.4 130.8 L 46.63817520141602 127.84013433456421 L 46.2 130.4 L 43.7 140.7 L 40.5 150.3 L 36.6 159.1 L 32.1 167.1 L 26.9 174.3 L 21.1 180.4 L 14.6 185.6 L 13.3 184.3 L 18.2 177.9 L 22.6 171.2 L 26.4 163.9 L 29.7 156.1 L 32.4 147.6 L 34.6 138.5 L 36.3 128.7 L 37.4 118.1 L 38.0 106.9 L 38.0 17.0 L 50.0 19.0 L 53.0 21.0 L 50.0 22.8 L 50.0 71.6625 L 50.9 70.2 L 53.3 66.6 L 55.5 63.1 L 57.6 59.8 L 59.6 56.6 L 61.5 53.6 L 63.2 50.8 L 64.29140748977662 48.9582498550415 L 64.2 48.9 L 64.71232872009277 48.24794521331787 L 64.8 48.1 L 64.81788539886475 48.11360034942627 L 65.3 47.5 L 74.4 55.4 L 75.6 58.8 L 71.54654960632324 58.38067750930786 L 69.8 60.2 L 64.6 65.4 L 61.7 68.2 L 58.7 71.1 L 55.5 74.1 L 52.1 77.2 L 50.0 78.95945949554444 L 50.0 95.0 L 49.3 107.5 L 48.1 119.3 L 47.37377109527588 123.54270544052125 L 48.5 124.5 L 52.2 127.8 L 55.6 131.3 L 58.7 134.8 L 61.5 138.3 L 64.0 141.9 L 66.3 145.5 L 68.3 149.1 L 70.0 152.8 L 71.5 156.5 L 70.8 161.0 L 67.2 163.9 L 62.7 163.2 L 59.9 159.6 L 59.3 156.4 Z M 147.8 183.7 L 135.2 182.5 L 124.8 180.5 L 116.3 177.6 L 109.4 173.6 L 104.1 168.8 L 100.1 163.3 L 97.3 157.1 L 96.3126582145691 153.69367084503173 L 96.3 153.7 L 95.5 154.9 L 93.4 158.4 L 91.2 161.7 L 89.0 164.9 L 86.8 168.0 L 84.6 171.0 L 82.3 174.0 L 80.1 176.9 L 78.42755098342896 179.02857141494752 L 79.3 183.1 L 75.7 182.5 L 65.8 175.4 L 67.2 174.0 L 72.6 169.6 L 75.4 167.3 L 78.2 164.9 L 81.0 162.6 L 84.0 160.2 L 87.0 157.7 L 87.7 157.13999996185302 L 87.7 95.0 L 69.4 95.0 L 69.4 91.0 L 87.7 91.0 L 93.7 86.0 L 104.7 95.0 L 99.7 99.0 L 99.7 152.0 L 99.02631578445434 152.3368420600891 L 101.0 155.1 L 104.9 159.8 L 109.0 163.6 L 113.8 166.5 L 119.6 168.8 L 127.0 170.5 L 136.4 171.5 L 148.1 171.9 L 162.4 171.5 L 179.7 170.4 L 190.7 169.7 L 180.5 183.5 L 162.8 184.0 Z M 125.8 81.9 L 125.5 79.3 L 125.1 76.8 L 124.6 74.2 L 124.1 71.7 L 123.4 69.2 L 121.8 64.0 L 120.6 61.6 L 122.0 60.5 L 123.9 62.6 L 126.1 64.5 L 128.0 66.6 L 129.8 68.9 L 131.5 71.3 L 133.1 73.8 L 134.5 76.5 L 135.8 79.2 L 136.9 82.1 L 137.9 85.1 L 136.8 89.5 L 134.97600002288817 90.7 L 152.84137935638427 90.7 L 153.2 89.4 L 153.6 86.4 L 154.8 80.4 L 155.5 77.5 L 156.2 74.5 L 156.9 71.6 L 158.3 65.6 L 158.82393159866334 63.635256385803224 L 158.7 63.6 L 159.6 61.3 L 170.3 66.9 L 172.3 69.9 L 168.26163883209227 70.6084843635559 L 167.2 72.4 L 165.7 75.1 L 164.1 77.8 L 160.9 83.0 L 157.5 88.0 L 155.6 90.5 L 155.4720000267029 90.7 L 162.11818180084228 90.7 L 170.3 81.7 L 180.3 90.7 L 180.3 94.7 L 150.3 94.7 L 150.3 115.0 L 157.71818180084227 115.0 L 165.9 106.0 L 175.9 115.0 L 175.9 119.0 L 150.3 119.0 L 150.3 139.3 L 163.2 139.3 L 173.2 129.3 L 185.2 139.3 L 185.2 143.3 L 150.3 143.3 L 150.3 165.3 L 138.3 171.3 L 138.3 143.3 L 105.4 143.3 L 105.4 139.3 L 138.3 139.3 L 138.3 119.0 L 112.8 119.0 L 112.8 115.0 L 138.3 115.0 L 138.3 94.7 L 109.8 94.7 L 109.8 90.7 L 128.46842107772827 90.7 L 126.1 87.1 L 126.0 84.5 Z M 17.0 108.6 L 14.2 105.0 L 14.6 100.4 L 16.3 97.6 L 17.9 94.5 L 19.2 90.9 L 20.4 86.8 L 21.4 82.4 L 22.1 77.5 L 22.7 72.3 L 23.1 66.6 L 23.4 60.6 L 23.7 54.1 L 25.5 53.8 L 27.2 60.2 L 28.5 66.3 L 29.3 72.2 L 29.7 77.8 L 29.8 83.2 L 29.6 88.3 L 29.0 93.2 L 28.1 97.8 L 26.8 102.1 L 25.2 106.2 L 21.5 109.0 Z M 104.4 56.5 L 138.3 56.5 L 138.3 36.2 L 110.3 36.2 L 110.3 32.2 L 138.3 32.2 L 138.3 12.5 L 150.3 14.5 L 153.3 16.5 L 150.3 18.3 L 150.3 32.2 L 156.8 32.2 L 166.8 22.2 L 178.8 32.2 L 178.8 36.2 L 150.3 36.2 L 150.3 56.5 L 163.2 56.5 L 173.2 46.5 L 185.2 56.5 L 185.2 60.5 L 104.4 60.5 Z M 89.2 49.3 L 88.0 46.3 L 86.7 43.4 L 85.3 40.5 L 83.7 37.6 L 81.9 34.7 L 80.0 31.9 L 78.0 29.0 L 75.7 26.3 L 76.8 24.9 L 79.9 26.8 L 83.1 28.8 L 86.1 30.9 L 88.9 33.3 L 91.5 35.8 L 94.0 38.6 L 96.3 41.4 L 98.5 44.5 L 100.4 47.6 L 102.2 51.0 L 102.1 55.5 L 98.8 58.7 L 94.3 58.6 L 91.1 55.3 L 90.2 52.3 Z " />
</g>
</svg>
