<svg xmlns="http://www.w3.org/2000/svg" xmlns:xlink="http://www.w3.org/1999/xlink" version="1.1" baseProfile="full" viewBox="0 0 200 200" width="200" height="200">
<g fill="black">
<path d="M 62.3 126.6 L 60.9 123.7 L 59.2 120.8 L 57.4 117.9 L 55.3 114.9 L 53.0 111.9 L 50.5 108.9 L 49.7 107.9518518447876 L 49.7 184.9 L 37.7 190.9 L 37.7 111.61911764144898 L 34.0 115.7 L 26.8 123.0 L 19.0 129.8 L 10.7 136.3 L 9.5 135.0 L 16.4 127.1 L 22.8 119.3 L 29.0 111.5 L 34.8 103.5 L 37.7 99.20370368957519 L 37.7 98.4 L 38.24250001907349 98.4 L 40.2 95.5 L 45.2 87.3 L 49.8 79.0 L 54.0 70.5 L 57.8 61.8 L 59.577272701263425 57.2 L 13.9 57.2 L 13.9 53.2 L 37.7 53.2 L 37.7 13.0 L 49.7 15.0 L 52.7 17.0 L 49.7 18.8 L 49.7 53.2 L 60.8 53.2 L 66.8 48.2 L 77.8 57.2 L 72.8 60.2 L 70.63134164810181 61.10360765457153 L 68.2 66.5 L 63.6 75.3 L 58.5 83.9 L 53.0 92.3 L 48.55679016113281 98.4 L 49.7 98.4 L 49.7 103.45263156890869 L 53.4 105.4 L 56.9 107.6 L 60.2 110.0 L 63.3 112.6 L 66.1 115.3 L 68.8 118.1 L 71.2 121.1 L 73.5 124.2 L 75.5 127.4 L 75.6 132.0 L 72.5 135.3 L 67.9 135.4 L 64.5 132.3 L 63.5 129.5 Z M 159.1 180.2 L 152.8 175.6 L 147.1 170.6 L 141.9 165.2 L 137.4 159.4 L 133.5 153.1 L 130.4 146.5 L 127.9 139.5 L 126.81858758926391 134.23712606430053 L 126.7 134.7 L 122.5 145.8 L 117.3 155.7 L 111.1 164.5 L 103.8 172.1 L 95.5 178.5 L 86.3 183.6 L 76.1 187.4 L 65.2 189.8 L 64.7 188.1 L 74.8 183.9 L 83.7 178.9 L 91.6 173.2 L 98.4 166.7 L 104.3 159.4 L 109.2 151.1 L 113.3 142.0 L 116.03529415130615 133.0 L 78.0 133.0 L 78.0 129.0 L 116.95 129.0 L 118.6 120.6 L 119.84799995422364 108.88800001144409 L 120.1 106.2 L 131.8 109.5 L 134.6 111.7 L 131.2049587249756 113.3975206375122 L 129.8 122.6 L 128.16033058166505 129.0 L 162.0 129.0 L 172.0 119.0 L 184.0 129.0 L 184.0 133.0 L 128.9222222328186 133.0 L 131.8 137.9 L 135.6 143.7 L 139.6 149.1 L 143.9 154.1 L 148.6 158.7 L 153.7 162.9 L 159.2 166.7 L 165.2 170.1 L 171.6 173.1 L 178.4 175.8 L 184.9 178.5 L 173.5 188.1 L 166.0 184.4 Z M 76.2 88.9 L 80.9 87.8 L 85.8 86.6 L 90.9 85.3 L 95.0 84.23703699111938 L 95.0 63.0 L 81.0 63.0 L 81.0 59.0 L 95.0 59.0 L 95.0 42.0 L 77.0 42.0 L 77.0 38.0 L 95.0 38.0 L 95.0 18.0 L 107.0 20.0 L 110.0 22.0 L 107.0 23.8 L 107.0 38.0 L 110.0 38.0 L 120.0 28.0 L 132.0 38.0 L 132.0 42.0 L 107.0 42.0 L 107.0 59.0 L 110.81818180084228 59.0 L 119.0 50.0 L 129.0 59.0 L 129.0 63.0 L 107.0 63.0 L 107.0 80.94035091400147 L 107.5 80.8 L 113.4 79.1 L 119.5 77.4 L 125.9 75.7 L 132.6 74.1 L 133.3 75.8 L 127.3 79.3 L 121.5 82.4 L 115.7 85.3 L 110.1 87.9 L 107.0 89.30909090042114 L 107.0 110.0 L 95.0 116.0 L 95.0 94.4365385055542 L 94.1 94.8 L 89.1 96.8 L 84.3 98.7 L 83.51693973541259 98.98323459625244 L 82.3 102.8 L 79.6 100.4 L 74.3 89.5 Z M 173.8 95.2 L 172.4 97.2 L 170.7 99.0 L 168.7 100.5 L 166.6 101.8 L 164.3 102.8 L 162.0 103.4 L 159.5 103.8 L 157.0 104.0 L 157.0 98.0 L 143.0 95.0 L 143.0 92.0 L 157.0 92.0 L 158.3 91.9 L 159.4 91.7 L 160.4 91.4 L 161.2 91.1 L 161.9 90.7 L 162.5 90.2 L 163.1 89.5 L 163.7 88.7 L 164.3 87.7 L 164.8 86.5 L 165.2 84.9 L 165.8 82.3 L 166.3 78.9 L 166.7 74.7 L 167.1 69.7 L 167.4 64.0 L 167.6 57.6 L 167.8 50.4 L 167.9 42.5 L 167.9764705657959 36.0 L 157.75660381317138 36.0 L 157.1 44.7 L 155.4 54.7 L 153.1 64.1 L 149.9 72.7 L 146.0 80.6 L 141.3 87.8 L 135.9 94.1 L 129.8 99.6 L 122.9 104.2 L 115.4 107.7 L 114.5 106.2 L 120.7 101.1 L 126.1 95.7 L 130.9 89.8 L 135.0 83.6 L 138.4 76.8 L 141.2 69.4 L 143.3 61.5 L 144.9 52.9 L 145.7 43.7 L 145.85876293182372 36.0 L 132.0 36.0 L 132.0 32.0 L 168.0 32.0 L 174.0 27.0 L 185.0 36.0 L 180.0 39.0 L 179.9415774345398 39.024342727661136 L 179.9 42.6 L 179.8 50.6 L 179.6 58.0 L 179.4 64.6 L 179.1 70.5 L 178.7 75.7 L 178.2 80.3 L 177.6 84.3 L 176.9 87.7 L 176.0 90.6 L 175.0 93.0 Z " />
</g>
</svg>
