<svg xmlns="http://www.w3.org/2000/svg" xmlns:xlink="http://www.w3.org/1999/xlink" version="1.1" baseProfile="full" viewBox="0 0 200 200" width="200" height="200">
<g fill="black">
<path d="M 62.1 124.9 L 60.7 122.0 L 59.2 119.1 L 57.4 116.2 L 55.4 113.3 L 53.2 110.3 L 50.8 107.3 L 50.3 106.70384616851807 L 50.3 183.0 L 38.3 189.0 L 38.3 111.8484375 L 35.8 114.7 L 29.0 121.7 L 21.7 128.4 L 13.9 134.6 L 12.7 133.3 L 19.0 125.7 L 25.0 118.2 L 30.7 110.6 L 36.1 102.9 L 38.3 99.46800003051757 L 38.3 98.0 L 39.241025638580325 98.0 L 41.1 95.1 L 45.8 87.1 L 50.2 79.0 L 54.1 70.7 L 57.7 62.3 L 59.36941175460815 58.0 L 16.2 58.0 L 16.2 54.0 L 60.6 54.0 L 66.6 49.0 L 77.6 58.0 L 72.6 61.0 L 70.45168018341064 61.89513320922852 L 68.1 67.0 L 63.7 75.6 L 58.9 83.9 L 53.7 92.0 L 49.392307662963866 98.0 L 50.3 98.0 L 50.3 102.06216220855713 L 53.7 103.9 L 57.2 106.1 L 60.4 108.5 L 63.4 111.1 L 66.1 113.8 L 68.7 116.6 L 71.1 119.5 L 73.3 122.6 L 75.2 125.8 L 75.2 130.4 L 72.1 133.7 L 67.5 133.7 L 64.2 130.6 L 63.3 127.8 Z M 134.3 175.0 L 154.3 175.0 L 155.6 174.9 L 156.5 174.7 L 157.4 174.4 L 157.8 174.0 L 158.1 173.1 L 158.3 172.2 L 158.3 146.0 L 129.5 146.0 L 129.5 142.0 L 158.3 142.0 L 158.3 125.0 L 170.3 127.0 L 173.3 129.0 L 170.3 130.8 L 170.3 142.0 L 175.8 142.0 L 180.3 136.0 L 186.3 142.0 L 186.3 146.0 L 170.3 146.0 L 170.3 171.0 L 170.2 173.5 L 169.8 176.0 L 169.0 178.4 L 167.7 180.7 L 166.1 182.7 L 164.1 184.3 L 161.8 185.6 L 159.4 186.4 L 156.9 186.8 L 154.3 187.0 L 154.3 181.0 L 134.3 178.0 Z M 96.8 139.2 L 110.3 139.2 L 116.3 134.2 L 127.3 143.2 L 122.3 147.2 L 122.3 173.6 L 110.3 179.6 L 110.3 169.6 L 96.8 169.6 L 96.8 176.6 L 84.8 182.6 L 84.8 133.2 Z M 136.9 164.6 L 136.9 163.2 L 136.7 161.7 L 136.3 160.1 L 135.8 158.4 L 135.1 156.7 L 134.2 154.8 L 133.2 152.9 L 131.6 151.3 L 132.8 149.9 L 134.6 151.3 L 136.8 152.3 L 138.7 153.5 L 140.5 154.7 L 142.2 156.1 L 143.8 157.7 L 145.2 159.3 L 146.4 161.1 L 147.5 162.9 L 148.4 165.0 L 147.4 169.4 L 143.6 171.9 L 139.1 170.9 L 136.6 167.0 L 136.8 165.8 Z M 96.8 143.2 L 96.8 165.6 L 110.3 165.6 L 110.3 143.2 Z M 185.3 119.0 L 185.3 123.0 L 78.2 123.0 L 78.2 119.0 L 171.0777777671814 119.0 L 177.3 112.0 Z M 86.5 101.5 L 125.5 101.5 L 125.5 86.0 L 93.3 86.0 L 93.3 82.0 L 151.4181818008423 82.0 L 159.6 73.0 L 169.6 82.0 L 169.6 86.0 L 137.5 86.0 L 137.5 101.5 L 158.21818180084227 101.5 L 166.4 92.5 L 176.4 101.5 L 176.4 105.5 L 86.5 105.5 Z M 189.2 67.7 L 184.2 70.7 L 179.8625 72.50729169845582 L 179.5 72.9 L 176.8 75.6 L 175.3 76.9 L 173.7 78.3 L 171.9 79.6 L 170.6 81.3 L 169.1 80.3 L 170.2 78.5 L 170.7 76.4 L 171.2 74.4 L 172.0 70.8 L 172.2 69.2 L 172.2 67.7 L 79.7 67.7 L 79.7 63.7 L 172.2 63.7 L 178.2 58.7 Z M 88.3 46.7 L 125.5 46.7 L 125.5 31.6 L 81.1 31.6 L 81.1 27.6 L 125.5 27.6 L 125.5 12.4 L 137.5 14.4 L 140.5 16.4 L 137.5 18.2 L 137.5 27.6 L 159.8 27.6 L 169.8 17.6 L 181.8 27.6 L 181.8 31.6 L 137.5 31.6 L 137.5 46.7 L 156.4181818008423 46.7 L 164.6 37.7 L 174.6 46.7 L 174.6 50.7 L 88.3 50.7 Z M 42.9 33.5 L 42.1 30.8 L 41.2 28.3 L 40.1 25.8 L 38.9 23.4 L 37.5 21.0 L 36.0 18.7 L 34.4 16.3 L 32.3 14.3 L 33.4 12.8 L 36.0 14.3 L 38.8 15.6 L 41.4 17.3 L 43.9 19.3 L 46.2 21.4 L 48.4 23.8 L 50.4 26.4 L 52.3 29.2 L 54.0 32.1 L 55.6 35.3 L 55.1 39.8 L 51.7 42.8 L 47.1 42.4 L 44.1 38.9 L 43.6 36.1 Z " />
</g>
</svg>
