<svg xmlns="http://www.w3.org/2000/svg" xmlns:xlink="http://www.w3.org/1999/xlink" version="1.1" baseProfile="full" viewBox="0 0 200 200" width="200" height="200">
<g fill="black">
<path d="M 174.0 147.0 L 176.0 147.0 L 174.0 172.0 L 177.6 174.4 L 180.0 178.0 L 177.6 181.6 L 174.0 184.0 L 125.0 184.0 L 122.4 183.8 L 119.9 183.4 L 117.5 182.6 L 115.2 181.3 L 113.2 179.7 L 111.6 177.7 L 110.3 175.4 L 109.5 173.0 L 109.1 170.5 L 109.0 168.0 L 109.0 132.0 L 90.57600002288818 132.0 L 87.6 141.3 L 83.2 150.4 L 77.7 158.6 L 71.2 165.8 L 63.5 172.1 L 54.9 177.3 L 45.4 181.5 L 34.9 184.7 L 23.4 186.8 L 11.1 187.8 L 10.8 186.1 L 22.6 183.1 L 33.3 179.5 L 42.8 175.4 L 51.1 170.7 L 58.4 165.3 L 64.5 159.3 L 69.6 152.7 L 73.7 145.4 L 76.9 137.4 L 78.21351346969604 132.0 L 61.0 132.0 L 61.0 144.0 L 49.0 150.0 L 49.0 82.0 L 61.0 88.0 L 136.0 88.0 L 142.0 83.0 L 153.0 92.0 L 148.0 96.0 L 148.0 138.0 L 136.0 144.0 L 136.0 132.0 L 121.0 132.0 L 121.0 169.2 L 121.2 170.1 L 121.5 171.0 L 121.9 171.4 L 122.8 171.7 L 123.7 171.9 L 125.0 172.0 L 168.0 172.0 Z M 61.0 111.0 L 61.0 128.0 L 136.0 128.0 L 136.0 111.0 Z M 61.0 92.0 L 61.0 107.0 L 136.0 107.0 L 136.0 92.0 Z M 169.0 39.0 L 169.0 43.0 L 131.134375 43.0 L 139.9 48.5 L 141.7 51.7 L 137.3834990501404 51.99264411926269 L 135.9 53.9 L 133.7 56.6 L 131.3 59.3 L 128.7 61.9 L 125.8 64.5 L 122.8 67.1 L 119.6 69.6 L 116.1 72.0 L 114.75384616851807 73.0 L 165.8181818008423 73.0 L 174.0 64.0 L 184.0 73.0 L 184.0 77.0 L 18.0 77.0 L 18.0 73.0 L 111.53823528289794 73.0 L 114.0 69.9 L 116.4 66.5 L 118.6 63.2 L 120.6 60.0 L 122.5 57.0 L 124.2 54.0 L 125.7 51.1 L 127.1 48.4 L 128.2 45.7 L 128.76658325195314 44.126157665252684 L 128.7 44.1 L 128.97142858505248 43.55714282989502 L 129.1 43.2 L 129.14014873504638 43.21970262527466 L 129.25 43.0 L 31.0 43.0 L 31.0 39.0 L 147.0 39.0 L 157.0 29.0 Z M 69.3 58.8 L 68.2 56.5 L 67.0 54.2 L 65.6 51.9 L 64.0 49.6 L 62.4 47.2 L 60.3 45.3 L 61.3 43.8 L 63.9 45.3 L 66.7 46.6 L 69.3 48.1 L 71.8 49.9 L 74.1 51.8 L 76.3 53.9 L 78.3 56.2 L 80.2 58.7 L 81.9 61.3 L 83.5 64.0 L 83.3 68.6 L 80.0 71.8 L 75.4 71.5 L 72.3 68.2 L 71.1 63.4 Z M 144.0 18.0 L 144.0 22.0 L 58.0 22.0 L 58.0 18.0 L 122.0 18.0 L 132.0 8.0 Z " />
</g>
</svg>
