<svg xmlns="http://www.w3.org/2000/svg" xmlns:xlink="http://www.w3.org/1999/xlink" version="1.1" baseProfile="full" viewBox="0 0 200 200" width="200" height="200">
<g fill="black">
<path d="M 63.0 176.1 L 75.0 176.1 L 76.2 176.0 L 77.1 175.9 L 77.7 175.7 L 78.0 175.5 L 78.2 175.3 L 78.4 175.2 L 78.5 174.8 L 78.7 174.2 L 78.9 173.3 L 79.0 172.1 L 79.0 159.8 L 38.0 159.8 L 38.0 181.9 L 26.0 187.9 L 26.0 115.5 L 38.0 121.5 L 79.0 121.5 L 85.0 116.5 L 96.0 125.5 L 91.0 129.5 L 91.0 172.1 L 90.8 174.6 L 90.4 177.1 L 89.6 179.5 L 88.3 181.8 L 86.7 183.8 L 84.7 185.5 L 82.4 186.7 L 80.0 187.5 L 77.5 187.9 L 75.0 188.1 L 75.0 182.1 L 63.0 179.1 Z M 183.0 158.7 L 185.0 158.7 L 183.0 175.7 L 186.0 177.7 L 188.0 180.7 L 186.0 183.7 L 183.0 185.7 L 127.0 185.7 L 124.5 185.6 L 122.1 185.3 L 119.8 184.6 L 117.6 183.5 L 115.6 182.0 L 113.9 180.2 L 112.6 178.0 L 111.7 175.7 L 111.2 173.2 L 111.0 170.7 L 111.0 106.2 L 123.0 112.2 L 165.0 112.2 L 165.0 96.1 L 123.0 96.1 L 123.0 99.1 L 111.0 105.1 L 111.0 61.0 L 123.0 63.0 L 126.0 65.0 L 123.0 66.8 L 123.0 75.7 L 163.0 75.7 L 173.0 65.7 L 185.0 75.7 L 185.0 79.7 L 123.0 79.7 L 123.0 92.1 L 165.0 92.1 L 171.0 87.1 L 182.0 96.1 L 177.0 100.1 L 177.0 116.2 L 165.0 122.2 L 165.0 116.2 L 123.0 116.2 L 123.0 128.6 L 160.7777777671814 128.6 L 167.0 121.6 L 175.0 128.6 L 175.0 132.6 L 123.0 132.6 L 123.0 143.6 L 160.7777777671814 143.6 L 167.0 136.6 L 175.0 143.6 L 175.0 147.6 L 123.0 147.6 L 123.0 158.6 L 156.8181818008423 158.6 L 165.0 149.6 L 175.0 158.6 L 175.0 162.6 L 123.0 162.6 L 123.0 170.7 L 122.9 171.9 L 123.0 172.8 L 123.1 173.5 L 123.3 174.3 L 123.5 174.6 L 123.9 174.9 L 124.6 175.2 L 125.6 175.5 L 127.0 175.7 L 178.0 175.7 Z M 38.0 142.6 L 38.0 155.8 L 79.0 155.8 L 79.0 142.6 Z M 38.0 125.5 L 38.0 138.6 L 79.0 138.6 L 79.0 125.5 Z M 100.0 78.6 L 100.0 82.6 L 78.77121210098267 82.6 L 87.8 88.5 L 89.5 91.7 L 85.12639245986938 91.92622108459473 L 84.5 92.7 L 82.7 94.8 L 78.7 99.0 L 76.5 101.2 L 74.2 103.3 L 71.7 105.4 L 69.36000003814698 107.2 L 85.81818180084228 107.2 L 94.0 98.2 L 104.0 107.2 L 104.0 111.2 L 14.0 111.2 L 14.0 107.2 L 66.2 107.2 L 67.1 105.8 L 68.5 102.8 L 69.9 100.0 L 71.3 97.3 L 72.5 94.7 L 74.7 89.7 L 76.5 85.1 L 76.88827142715454 83.87971849441529 L 76.7 83.8 L 77.33157892227173 82.6 L 18.0 82.6 L 18.0 78.6 L 81.81818180084228 78.6 L 90.0 69.6 Z M 37.6 99.9 L 37.0 98.0 L 36.4 96.2 L 35.6 94.3 L 34.6 92.4 L 33.6 90.4 L 31.0 86.4 L 29.2 84.7 L 30.3 83.3 L 32.4 84.6 L 34.8 85.6 L 37.1 86.8 L 39.2 88.2 L 41.2 89.7 L 43.1 91.3 L 44.9 93.1 L 46.5 95.0 L 48.1 97.0 L 49.5 99.2 L 49.3 103.7 L 46.0 106.9 L 41.5 106.8 L 38.3 103.5 L 38.0 101.7 Z M 82.0 67.1 L 82.0 71.1 L 36.0 71.1 L 36.0 67.1 L 63.81818180084228 67.1 L 72.0 58.1 Z M 66.8 50.3 L 65.6 48.3 L 64.1 46.3 L 62.3 44.2 L 60.1 42.1 L 57.7 39.9 L 55.0 37.6 L 52.0 35.3 L 49.83333330154419 34.0 L 45.11836738586426 34.0 L 42.4 37.7 L 38.4 42.3 L 34.1 46.7 L 29.3 50.9 L 24.1 54.9 L 18.5 58.5 L 12.5 61.8 L 11.4 60.3 L 16.2 55.5 L 20.6 50.8 L 24.7 46.2 L 28.5 41.6 L 31.8 37.0 L 34.8 32.3 L 37.4 27.6 L 39.6 22.9 L 41.5 18.1 L 42.61337146759033 14.20319995880127 L 42.6 14.2 L 42.73333330154419 13.78333330154419 L 42.9 13.2 L 42.91807231903076 13.206024074554444 L 43.4 11.7 L 54.3 17.0 L 56.5 19.9 L 52.75135517120361 20.703281021118165 L 52.0 22.5 L 49.2 27.7 L 47.75686273574829 30.0 L 84.0 30.0 L 94.0 20.0 L 106.0 30.0 L 106.0 34.0 L 57.17692308425903 34.0 L 60.5 35.2 L 63.8 36.6 L 66.9 38.1 L 69.7 39.8 L 72.4 41.7 L 74.8 43.7 L 76.9 45.9 L 78.8 48.3 L 79.2 52.9 L 76.4 56.4 L 71.8 56.8 L 68.2 53.9 L 67.6 52.2 Z M 145.8 50.3 L 144.6 48.3 L 143.1 46.3 L 141.3 44.2 L 139.1 42.1 L 136.7 39.9 L 134.0 37.6 L 131.0 35.3 L 128.8333333015442 34.0 L 123.56956520080567 34.0 L 121.3 36.9 L 117.3 41.3 L 113.0 45.3 L 108.2 49.1 L 103.0 52.7 L 97.4 55.8 L 91.4 58.5 L 90.5 57.0 L 95.3 52.7 L 99.7 48.4 L 103.8 44.2 L 107.6 40.0 L 110.9 35.7 L 113.9 31.4 L 116.4 27.0 L 118.6 22.5 L 120.5 17.9 L 121.62965030670166 14.107602596282959 L 121.6 14.1 L 121.7551724433899 13.686206912994384 L 121.9 13.2 L 121.93323612213135 13.211370277404786 L 122.5 11.7 L 133.3 17.1 L 135.5 19.9 L 131.66663007736207 20.707025241851806 L 130.9 22.4 L 128.1 27.5 L 126.4333333015442 30.0 L 164.0 30.0 L 174.0 20.0 L 186.0 30.0 L 186.0 34.0 L 136.17692308425904 34.0 L 139.5 35.2 L 142.8 36.6 L 145.9 38.1 L 148.7 39.8 L 151.4 41.7 L 153.8 43.7 L 155.9 45.9 L 157.8 48.3 L 158.2 52.9 L 155.4 56.4 L 150.8 56.8 L 147.2 53.9 L 146.6 52.2 Z " />
</g>
</svg>
