<svg xmlns="http://www.w3.org/2000/svg" xmlns:xlink="http://www.w3.org/1999/xlink" version="1.1" baseProfile="full" viewBox="0 0 200 200" width="200" height="200">
<g fill="black">
<path d="M 21.6 167.5 L 29.1 167.4 L 37.5 167.3 L 46.9 167.1 L 51.0 167.06019420623778 L 51.0 127.8 L 20.0 127.8 L 20.0 123.8 L 165.7777777671814 123.8 L 172.0 116.8 L 180.0 123.8 L 180.0 127.8 L 145.0 127.8 L 145.0 182.4 L 133.0 188.4 L 133.0 168.81698112487794 L 123.1 170.0 L 108.2 171.6 L 94.2 172.9 L 81.1 174.1 L 68.9 175.2 L 57.7 176.2 L 47.4 177.2 L 38.1 178.0 L 29.7 178.8 L 26.359829044342042 179.11596212387084 L 24.4 182.4 L 22.3 179.5 L 19.6 167.6 Z M 63.0 156.6 L 63.0 166.89734516143798 L 68.5 166.8 L 80.7 166.5 L 93.8 166.4 L 107.9 166.2 L 122.9 166.2 L 133.0 166.32624998092652 L 133.0 156.6 Z M 63.0 142.4 L 63.0 152.6 L 133.0 152.6 L 133.0 142.4 Z M 63.0 127.8 L 63.0 138.4 L 133.0 138.4 L 133.0 127.8 Z M 63.0 105.9 L 75.0 105.9 L 76.2 105.8 L 77.1 105.6 L 77.7 105.5 L 78.0 105.3 L 78.4 104.9 L 78.7 104.0 L 78.9 103.1 L 79.0 101.9 L 79.0 94.8 L 38.0 94.8 L 38.0 111.1 L 26.0 117.1 L 26.0 58.0 L 38.0 64.0 L 79.0 64.0 L 85.0 59.0 L 96.0 68.0 L 91.0 72.0 L 91.0 101.9 L 90.8 104.4 L 90.4 106.9 L 89.6 109.3 L 88.3 111.6 L 86.7 113.6 L 84.7 115.3 L 82.4 116.5 L 80.0 117.3 L 77.5 117.7 L 75.0 117.9 L 75.0 111.9 L 63.0 108.9 Z M 124.6 114.4 L 122.4 114.2 L 120.2 113.8 L 118.1 112.9 L 116.1 111.6 L 114.4 109.9 L 113.0 107.9 L 112.0 105.7 L 111.3 103.3 L 111.0 100.8 L 111.0 16.8 L 123.0 18.8 L 126.0 20.8 L 123.0 22.6 L 123.0 28.1 L 166.8181818008423 28.1 L 175.0 19.1 L 185.0 28.1 L 185.0 32.1 L 123.0 32.1 L 123.0 41.0 L 165.0 41.0 L 171.0 36.0 L 182.0 45.0 L 177.0 49.0 L 177.0 60.7 L 169.2545454978943 64.57272729873657 L 175.0 69.6 L 175.0 73.6 L 123.0 73.6 L 123.0 81.3 L 160.7777777671814 81.3 L 167.0 74.3 L 175.0 81.3 L 175.0 85.3 L 123.0 85.3 L 123.0 93.1 L 160.7777777671814 93.1 L 167.0 86.1 L 175.0 93.1 L 175.0 97.1 L 123.0 97.1 L 123.0 100.8 L 122.8 102.0 L 122.7 103.0 L 122.7 104.4 L 122.8 104.9 L 123.0 105.4 L 123.5 105.9 L 124.3 106.5 L 125.5 106.9 L 127.0 107.3 L 179.5 107.3 L 183.0 102.3 L 185.0 102.3 L 183.0 107.3 L 185.1 108.7 L 186.5 110.8 L 185.1 112.9 L 183.0 114.3 L 127.0 114.3 Z M 38.0 81.4 L 38.0 90.8 L 79.0 90.8 L 79.0 81.4 Z M 38.0 68.0 L 38.0 77.4 L 79.0 77.4 L 79.0 68.0 Z M 123.0 60.7 L 123.0 69.6 L 160.7777777671814 69.6 L 165.0 64.85 L 165.0 60.7 Z M 37.7 48.2 L 37.3 46.8 L 36.7 45.3 L 35.9 43.8 L 34.9 42.2 L 33.8 40.6 L 32.6 38.9 L 31.2 37.1 L 29.4 35.9 L 30.24375 34.4 L 18.0 34.4 L 18.0 30.4 L 81.81818180084228 30.4 L 90.0 21.4 L 100.0 30.4 L 100.0 34.4 L 80.33918914794921 34.4 L 87.4 39.9 L 88.8 43.2 L 84.13929643630982 42.96301507949829 L 84.1 43.0 L 82.2 44.5 L 80.3 46.1 L 78.3 47.6 L 76.2 49.2 L 73.9 50.7 L 71.5 52.2 L 70.38571424484253 52.8 L 89.77777776718139 52.8 L 96.0 45.8 L 104.0 52.8 L 104.0 56.8 L 14.0 56.8 L 14.0 52.8 L 40.53333330154419 52.8 L 38.2 50.8 L 38.1 49.5 Z M 123.0 45.0 L 111.3 50.85 L 123.0 56.7 L 165.0 56.7 L 165.0 45.0 Z M 30.5 34.4 L 32.3 35.3 L 34.6 35.9 L 36.8 36.7 L 38.8 37.6 L 40.8 38.6 L 42.6 39.7 L 44.4 41.0 L 46.0 42.3 L 47.6 43.8 L 49.0 45.5 L 49.2 50.0 L 46.880000019073485 52.8 L 66.48181819915771 52.8 L 67.3 51.9 L 68.8 49.4 L 71.6 44.8 L 74.0 40.6 L 75.0 38.6 L 75.9 36.7 L 76.7 34.9 L 76.90588235855103 34.4 Z M 82.0 21.4 L 82.0 25.4 L 36.0 25.4 L 36.0 21.4 L 63.81818180084228 21.4 L 72.0 12.4 Z " />
</g>
</svg>
