<svg xmlns="http://www.w3.org/2000/svg" xmlns:xlink="http://www.w3.org/1999/xlink" version="1.1" baseProfile="full" viewBox="0 0 200 200" width="200" height="200">
<g fill="black">
<path d="M 61.9 93.7 L 138.0 93.7 L 144.0 88.7 L 155.0 97.7 L 150.0 101.7 L 150.0 124.6 L 138.0 130.6 L 138.0 122.6 L 126.0 122.6 L 126.0 141.2 L 147.8181818008423 141.2 L 156.0 132.2 L 166.0 141.2 L 166.0 145.2 L 126.0 145.2 L 126.0 163.5 L 162.0 163.5 L 172.0 153.5 L 184.0 163.5 L 184.0 167.5 L 126.0 167.5 L 126.0 183.0 L 114.0 189.0 L 114.0 167.5 L 49.69763517379761 167.5 L 46.6 172.8 L 33.2 171.9 L 48.829268264770505 145.2 L 36.0 145.2 L 36.0 141.2 L 114.0 141.2 L 114.0 122.6 L 61.9 122.6 L 61.9 125.6 L 49.9 131.6 L 49.9 87.7 Z M 62.731081104278566 145.2 L 52.03547296524048 163.5 L 114.0 163.5 L 114.0 145.2 Z M 61.9 97.7 L 61.9 118.6 L 138.0 118.6 L 138.0 97.7 Z M 22.0 79.7 L 74.0289719581604 79.7 L 80.010280418396 59.7 L 40.0 59.7 L 40.0 55.7 L 81.20654201507568 55.7 L 86.5 38.0 L 97.4 43.3 L 99.7 46.1 L 96.3158151626587 46.93008308410644 L 93.69653329849243 55.7 L 136.0 55.7 L 142.0 50.7 L 153.0 59.7 L 148.0 63.7 L 148.0 79.7 L 163.8181818008423 79.7 L 172.0 70.7 L 182.0 79.7 L 182.0 83.7 L 22.0 83.7 Z M 92.5018666267395 59.7 L 86.52853336334229 79.7 L 136.0 79.7 L 136.0 59.7 Z M 140.9 13.8 L 143.9 15.8 L 140.9 17.6 L 140.9 28.5 L 162.3 28.5 L 172.3 18.5 L 184.3 28.5 L 184.3 32.5 L 140.9 32.5 L 140.9 44.5 L 128.9 50.5 L 128.9 32.5 L 104.8 32.5 L 104.8 28.5 L 128.9 28.5 L 128.9 11.8 Z M 71.0 13.8 L 74.0 15.8 L 71.0 17.6 L 71.0 28.5 L 73.1 28.5 L 83.1 18.5 L 95.1 28.5 L 95.1 32.5 L 71.0 32.5 L 71.0 44.5 L 59.0 50.5 L 59.0 32.5 L 15.6 32.5 L 15.6 28.5 L 59.0 28.5 L 59.0 11.8 Z " />
</g>
</svg>
