<svg xmlns="http://www.w3.org/2000/svg" xmlns:xlink="http://www.w3.org/1999/xlink" version="1.1" baseProfile="full" viewBox="0 0 200 200" width="200" height="200">
<g fill="black">
<path d="M 30.1 128.3 L 60.0 128.3 L 66.0 123.3 L 77.0 132.3 L 72.0 136.3 L 72.0 175.5 L 60.0 181.5 L 60.0 169.5 L 30.1 169.5 L 30.1 181.5 L 18.1 187.5 L 18.1 122.3 Z M 147.2 161.0 L 157.2 161.0 L 158.4 160.9 L 159.3 160.7 L 159.9 160.5 L 160.3 160.4 L 160.5 160.2 L 160.6 160.0 L 160.8 159.7 L 161.0 159.1 L 161.1 158.2 L 161.2 157.0 L 161.2 118.0 L 141.5 118.0 L 141.5 183.0 L 129.5 189.0 L 129.5 118.0 L 109.7 118.0 L 109.7 167.0 L 97.7 173.0 L 97.7 108.0 L 109.7 114.0 L 129.5 114.0 L 129.5 93.0 L 141.5 95.0 L 144.5 97.0 L 141.5 98.8 L 141.5 114.0 L 161.2 114.0 L 167.2 109.0 L 171.18345584869385 112.25919113159179 L 172.2 109.5 L 173.1 105.8 L 174.0 102.3 L 174.9 99.0 L 175.8 95.9 L 176.5 92.9 L 177.2 90.2 L 177.8 87.6 L 177.93999996185303 86.9 L 146.04864864349366 86.9 L 145.8 87.3 L 144.88571424484252 86.9 L 93.43888893127442 86.9 L 93.6 89.8 L 93.7 94.8 L 93.4 99.5 L 93.0 103.7 L 92.2 107.6 L 91.2 111.1 L 89.8 114.4 L 87.9 117.4 L 83.7 119.2 L 79.4 117.6 L 77.6 113.4 L 79.2 109.2 L 80.3 108.2 L 81.7 106.6 L 83.0 104.3 L 84.3 101.5 L 85.5 98.0 L 86.6 94.0 L 87.6 89.4 L 88.5 84.2 L 89.4 78.6 L 90.1 72.4 L 91.9 72.3 L 92.7 78.6 L 93.14482755661011 82.9 L 116.32702703475952 82.9 L 113.7 79.3 L 112.9 72.9 L 112.4 69.9 L 111.8 67.0 L 111.2 64.2 L 110.5 61.5 L 109.7 58.8 L 108.9 56.2 L 108.0 53.6 L 106.8 51.3 L 108.2 50.2 L 110.2 52.1 L 112.4 54.0 L 114.4 56.1 L 116.3 58.5 L 118.1 61.1 L 119.8 63.9 L 121.4 66.9 L 122.8 70.0 L 124.2 73.3 L 125.4 76.7 L 124.6 81.2 L 122.27037038803101 82.9 L 145.16904764175416 82.9 L 145.3 82.4 L 146.3 78.2 L 148.3 70.4 L 149.3 66.7 L 150.3 63.1 L 151.2 59.6 L 152.8 53.0 L 153.36337146759033 50.81693544387817 L 153.3 50.8 L 154.1 48.4 L 164.9 53.9 L 167.0 56.8 L 163.0825842857361 57.55599250793457 L 161.9 60.0 L 160.2 63.1 L 158.5 66.4 L 156.7 69.7 L 152.7 76.5 L 150.5 80.1 L 148.58000001907348 82.9 L 178.3 82.9 L 184.3 77.9 L 195.3 86.9 L 190.3 89.9 L 187.6247706413269 91.0146788597107 L 186.0 93.8 L 184.4 96.3 L 182.8 99.0 L 181.0 101.8 L 179.0 104.7 L 176.9 107.6 L 174.6 110.7 L 172.77771739959718 113.56358699798584 L 178.2 118.0 L 173.2 122.0 L 173.2 157.0 L 173.1 159.5 L 172.6 162.0 L 171.8 164.4 L 170.6 166.7 L 168.9 168.7 L 166.9 170.3 L 164.7 171.6 L 162.3 172.4 L 159.8 172.8 L 157.2 173.0 L 157.2 167.0 L 147.2 164.0 Z M 30.1 132.3 L 30.1 165.5 L 60.0 165.5 L 60.0 132.3 Z M 71.6 103.8 L 71.6 107.8 L 18.6 107.8 L 18.6 103.8 L 49.6 103.8 L 59.6 93.8 Z M 71.6 78.3 L 71.6 82.3 L 18.6 82.3 L 18.6 78.3 L 49.6 78.3 L 59.6 68.3 Z M 79.9 50.8 L 79.9 54.8 L 14.8 54.8 L 14.8 50.8 L 57.9 50.8 L 67.9 40.8 Z M 183.1 44.0 L 183.1 48.0 L 87.8 48.0 L 87.8 44.0 L 161.1 44.0 L 171.1 34.0 Z M 71.6 25.4 L 71.6 29.4 L 18.6 29.4 L 18.6 25.4 L 49.6 25.4 L 59.6 15.4 Z M 167.2 23.0 L 167.2 27.0 L 103.7 27.0 L 103.7 23.0 L 145.2 23.0 L 155.2 13.0 Z " />
</g>
</svg>
