<svg xmlns="http://www.w3.org/2000/svg" xmlns:xlink="http://www.w3.org/1999/xlink" version="1.1" baseProfile="full" viewBox="0 0 200 200" width="200" height="200">
<g fill="black">
<path d="M 29.6 130.9 L 56.7 130.9 L 62.7 125.9 L 73.7 134.9 L 68.7 138.9 L 68.7 177.2 L 56.7 183.2 L 56.7 171.2 L 29.6 171.2 L 29.6 183.2 L 17.6 189.2 L 17.6 124.9 Z M 140.4 118.4 L 143.4 120.4 L 140.4 122.2 L 140.4 131.3 L 158.4 131.3 L 168.4 121.3 L 180.4 131.3 L 180.4 135.3 L 140.4 135.3 L 140.4 158.1 L 164.0 158.1 L 174.0 148.1 L 186.0 158.1 L 186.0 162.1 L 140.4 162.1 L 140.4 183.0 L 128.4 189.0 L 128.4 162.1 L 93.10402011871338 162.1 L 92.6 163.8 L 79.4 166.1 L 87.5 138.6 L 98.5 143.9 L 100.8 146.7 L 97.42926149368286 147.51147413253784 L 94.28994970321655 158.1 L 128.4 158.1 L 128.4 135.3 L 89.6 135.3 L 89.6 131.3 L 128.4 131.3 L 128.4 116.4 Z M 29.6 134.9 L 29.6 167.2 L 56.7 167.2 L 56.7 134.9 Z M 105.7 79.5 L 154.2 79.5 L 160.2 74.5 L 171.2 83.5 L 166.2 87.5 L 166.2 113.4 L 154.2 119.4 L 154.2 109.4 L 105.7 109.4 L 105.7 116.4 L 93.7 122.4 L 93.7 73.5 Z M 67.9 107.0 L 67.9 111.0 L 18.4 111.0 L 18.4 107.0 L 49.71818180084229 107.0 L 57.9 98.0 Z M 105.7 83.5 L 105.7 105.4 L 154.2 105.4 L 154.2 83.5 Z M 67.9 82.2 L 67.9 86.2 L 18.4 86.2 L 18.4 82.2 L 49.71818180084229 82.2 L 57.9 73.2 Z M 74.0 61.6 L 107.44150943756104 61.6 L 112.69547166824341 37.8 L 82.9 37.8 L 82.9 33.8 L 113.57849054336548 33.8 L 118.7 10.6 L 130.0 15.2 L 132.5 17.8 L 129.21998167037964 18.728307056427003 L 125.88801651000976 33.8 L 149.7 33.8 L 155.7 28.8 L 166.7 37.8 L 161.7 41.8 L 161.7 61.6 L 171.7777777671814 61.6 L 178.0 54.6 L 186.0 61.6 L 186.0 65.6 L 74.0 65.6 Z M 125.00371904373169 37.8 L 119.74214878082276 61.6 L 149.7 61.6 L 149.7 37.8 Z M 75.8 55.4 L 75.8 59.4 L 14.9 59.4 L 14.9 55.4 L 61.577777767181395 55.4 L 67.8 48.4 Z M 67.9 30.6 L 67.9 34.6 L 18.4 34.6 L 18.4 30.6 L 49.71818180084229 30.6 L 57.9 21.6 Z " />
</g>
</svg>
