<svg xmlns="http://www.w3.org/2000/svg" xmlns:xlink="http://www.w3.org/1999/xlink" version="1.1" baseProfile="full" viewBox="0 0 200 200" width="200" height="200">
<g fill="black">
<path d="M 14.9 168.9 L 21.2 167.3014925003052 L 21.2 101.0 L 32.2 103.0 L 34.9 105.0 L 32.2 106.72340421676635 L 32.2 164.42238807678223 L 41.8 161.7 L 44.9 160.77462682723998 L 44.9 80.0 L 32.7 80.0 L 32.7 83.0 L 20.7 89.0 L 20.7 22.0 L 32.7 28.0 L 65.7 28.0 L 71.7 23.0 L 82.7 32.0 L 77.7 36.0 L 77.7 86.0 L 65.7 92.0 L 65.7 80.0 L 55.9 80.0 L 55.9 117.0 L 66.9777777671814 117.0 L 73.2 110.0 L 81.2 117.0 L 81.2 121.0 L 55.9 121.0 L 55.9 157.37014923095703 L 61.9 155.4 L 75.5 151.2 L 82.4 149.1 L 83.1 150.8 L 77.0 154.6 L 70.8 158.2 L 64.4 161.5 L 58.0 164.6 L 51.5 167.6 L 44.9 170.4 L 38.3 173.1 L 31.7 175.7 L 25.0 178.1 L 22.135566616058348 179.06885242462158 L 21.0 182.8 L 18.2 180.4 L 13.0 169.5 Z M 147.1 161.0 L 157.1 161.0 L 158.3 160.9 L 159.3 160.7 L 159.8 160.5 L 160.2 160.4 L 160.4 160.2 L 160.5 160.0 L 160.7 159.7 L 160.9 159.1 L 161.0 158.2 L 161.1 157.0 L 161.1 116.0 L 139.5 116.0 L 139.5 183.0 L 127.5 189.0 L 127.5 116.0 L 105.8 116.0 L 105.8 167.0 L 93.8 173.0 L 93.8 106.0 L 105.8 112.0 L 127.5 112.0 L 127.5 85.6 L 93.11999998092651 85.6 L 93.3 87.4 L 93.4 91.2 L 93.2 94.7 L 92.8 97.9 L 92.2 101.0 L 91.2 103.8 L 89.8 106.5 L 87.9 108.9 L 83.5 110.2 L 79.5 108.1 L 78.2 103.7 L 80.3 99.6 L 81.2 99.3 L 82.3 98.5 L 83.5 97.1 L 84.7 95.3 L 85.8 93.0 L 86.9 90.2 L 87.9 86.9 L 88.8 83.2 L 89.6 79.1 L 90.0 74.6 L 91.8 74.6 L 92.3 79.1 L 92.648837184906 81.6 L 141.8069766998291 81.6 L 142.7 79.2 L 144.1 75.0 L 145.6 70.9 L 147.0 66.9 L 148.5 63.1 L 151.1 55.7 L 152.4 52.2 L 153.6 48.8 L 154.36885013580323 46.423554039001466 L 154.3 46.4 L 154.665625 45.50625 L 154.7 45.4 L 154.70768957138063 45.40342540740967 L 155.2 44.2 L 165.7 50.3 L 167.6 53.3 L 163.59037561416625 53.85305166244507 L 161.9 56.7 L 159.9 60.0 L 157.8 63.3 L 155.6 66.7 L 153.3 70.2 L 150.9 73.7 L 148.3 77.2 L 145.5 80.8 L 144.8555555343628 81.6 L 174.2 81.6 L 180.2 76.6 L 191.2 85.6 L 186.2 88.6 L 182.4325581550598 90.16976747512817 L 181.7 91.0 L 180.2 92.8 L 178.6 94.7 L 175.0 98.7 L 172.9 100.8 L 170.7 102.9 L 168.8 105.3 L 167.3 104.4 L 168.7 101.6 L 169.7 98.7 L 170.6 96.0 L 172.2 91.0 L 172.9 88.8 L 173.5 86.6 L 173.75 85.6 L 139.5 85.6 L 139.5 112.0 L 161.1 112.0 L 167.1 107.0 L 178.1 116.0 L 173.1 120.0 L 173.1 157.0 L 173.0 159.5 L 172.5 162.0 L 171.7 164.4 L 170.5 166.7 L 168.9 168.7 L 166.8 170.3 L 164.6 171.6 L 162.2 172.4 L 159.7 172.8 L 157.1 173.0 L 157.1 167.0 L 147.1 164.0 Z M 110.3 70.1 L 109.4 66.9 L 108.4 63.8 L 107.4 60.8 L 106.2 57.9 L 105.0 55.2 L 103.8 52.4 L 102.5 49.7 L 100.8 47.3 L 102.1 46.0 L 104.5 47.9 L 107.1 49.7 L 109.6 51.9 L 111.9 54.3 L 114.1 57.0 L 116.2 59.9 L 118.1 62.9 L 120.0 66.2 L 121.7 69.7 L 123.3 73.3 L 122.9 77.8 L 119.4 80.8 L 114.8 80.3 L 111.9 76.9 L 111.1 73.4 Z M 32.7 32.0 L 32.7 76.0 L 65.7 76.0 L 65.7 32.0 Z M 182.1 40.0 L 182.1 44.0 L 84.8 44.0 L 84.8 40.0 L 160.1 40.0 L 170.1 30.0 Z M 161.5 23.0 L 161.5 27.0 L 105.4 27.0 L 105.4 23.0 L 139.5 23.0 L 149.5 13.0 Z " />
</g>
</svg>
