<svg xmlns="http://www.w3.org/2000/svg" xmlns:xlink="http://www.w3.org/1999/xlink" version="1.1" baseProfile="full" viewBox="0 0 200 200" width="200" height="200">
<g fill="black">
<path d="M 130.2 183.7 L 112.0 182.5 L 97.0 180.6 L 84.7 177.7 L 74.9 173.9 L 67.0 169.2 L 61.0 163.7 L 56.3 157.3 L 54.15256481170654 153.12443151474 L 52.0 155.4 L 48.6 158.9 L 45.0 162.3 L 37.8 168.7 L 34.3 171.8 L 30.7 174.8 L 27.2 177.7 L 23.444505500793458 180.70439558029176 L 23.5 184.7 L 20.2 183.3 L 11.7 174.6 L 13.4 173.4 L 17.2 171.2 L 28.9 164.3 L 41.2 157.1 L 44.0 155.60232553482055 L 44.0 95.0 L 14.0 95.0 L 14.0 91.0 L 44.0 91.0 L 50.0 86.0 L 61.0 95.0 L 56.0 99.0 L 56.0 151.03207550048828 L 59.6 154.7 L 65.0 159.3 L 70.9 163.1 L 78.1 166.2 L 87.1 168.7 L 98.4 170.4 L 112.7 171.5 L 130.4 171.9 L 151.9 171.5 L 177.7 170.4 L 189.0 169.9 L 178.2 183.5 L 152.1 184.0 Z M 136.0 154.0 L 150.0 154.0 L 151.2 153.9 L 152.1 153.7 L 153.0 153.4 L 153.4 153.0 L 153.7 152.1 L 153.9 151.2 L 154.0 150.0 L 154.0 125.0 L 99.0 125.0 L 99.0 162.0 L 87.0 168.0 L 87.0 61.9 L 82.8 66.1 L 77.5 71.1 L 71.7 75.9 L 65.6 80.6 L 64.3 79.3 L 69.0 73.2 L 73.6 67.4 L 77.9 61.7 L 82.0 56.2 L 85.7 50.8 L 89.2 45.5 L 92.4 40.3 L 95.3 35.2 L 97.9 30.1 L 100.1 25.2 L 100.14014873504638 25.219702625274657 L 100.7 24.1 L 110.9 30.5 L 112.7 33.7 L 108.83614130020142 33.96195650100708 L 107.8 35.7 L 104.4 40.8 L 100.8 45.9 L 96.8 51.0 L 92.4 56.0 L 88.2351351737976 60.61756753921509 L 99.0 66.0 L 121.0 66.0 L 121.0 14.0 L 133.0 16.0 L 136.0 18.0 L 133.0 19.8 L 133.0 66.0 L 154.0 66.0 L 160.0 61.0 L 171.0 70.0 L 166.0 74.0 L 166.0 150.0 L 165.8 152.5 L 165.4 155.0 L 164.6 157.4 L 163.3 159.7 L 161.7 161.7 L 159.7 163.3 L 157.4 164.6 L 155.0 165.4 L 152.5 165.8 L 150.0 166.0 L 150.0 160.0 L 136.0 157.0 Z M 99.0 97.0 L 99.0 121.0 L 154.0 121.0 L 154.0 97.0 Z M 99.0 93.0 L 154.0 93.0 L 154.0 70.0 L 99.0 70.0 Z M 167.5 56.3 L 165.3 52.8 L 162.8 49.3 L 160.1 45.9 L 157.2 42.4 L 154.0 39.0 L 150.6 35.5 L 147.1 31.9 L 143.3 28.3 L 144.3 26.7 L 149.1 29.0 L 153.7 31.4 L 158.1 34.1 L 162.1 37.0 L 166.0 40.0 L 169.6 43.2 L 173.0 46.5 L 176.1 50.0 L 179.0 53.6 L 181.7 57.4 L 182.2 61.9 L 179.4 65.6 L 174.9 66.1 L 171.3 63.3 L 169.5 59.8 Z M 46.0 50.2 L 44.0 47.2 L 41.8 44.2 L 39.3 41.2 L 36.6 38.2 L 33.7 35.2 L 30.5 32.2 L 27.1 29.2 L 23.4 26.2 L 24.3 24.6 L 28.8 26.4 L 33.1 28.2 L 37.2 30.3 L 41.1 32.7 L 44.8 35.2 L 48.2 37.9 L 51.4 40.7 L 54.4 43.8 L 57.1 47.0 L 59.6 50.3 L 60.2 54.9 L 57.5 58.5 L 52.9 59.1 L 49.3 56.4 L 47.7 53.3 Z " />
</g>
</svg>
