<svg xmlns="http://www.w3.org/2000/svg" xmlns:xlink="http://www.w3.org/1999/xlink" version="1.1" baseProfile="full" viewBox="0 0 200 200" width="200" height="200">
<g fill="black">
<path d="M 130.2 183.7 L 112.0 182.5 L 97.0 180.6 L 84.7 177.7 L 74.9 173.9 L 67.0 169.2 L 61.0 163.7 L 56.3 157.3 L 54.15256481170654 153.12443151474 L 52.0 155.4 L 48.6 158.9 L 45.0 162.3 L 37.8 168.7 L 34.3 171.8 L 30.7 174.8 L 27.2 177.7 L 23.444505500793458 180.70439558029176 L 23.5 184.7 L 20.2 183.3 L 11.7 174.6 L 13.4 173.4 L 17.2 171.2 L 28.9 164.3 L 41.2 157.1 L 44.0 155.60232553482055 L 44.0 95.0 L 14.0 95.0 L 14.0 91.0 L 44.0 91.0 L 50.0 86.0 L 61.0 95.0 L 56.0 99.0 L 56.0 151.03207550048828 L 59.6 154.7 L 65.0 159.3 L 70.9 163.1 L 78.1 166.2 L 87.1 168.7 L 98.4 170.4 L 112.7 171.5 L 130.4 171.9 L 151.9 171.5 L 177.7 170.4 L 189.0 169.9 L 178.2 183.5 L 152.1 184.0 Z M 66.5 153.5 L 119.5 153.5 L 119.5 124.8 L 76.8 124.8 L 76.8 120.8 L 119.5 120.8 L 119.5 98.94123706817626 L 112.4 99.6 L 102.5 100.4 L 92.2 101.0 L 81.6 101.3 L 70.7 101.3 L 70.6 99.5 L 81.3 97.5 L 91.6 95.6 L 101.7 93.9 L 111.4 92.1 L 120.8 90.3 L 129.9 88.4 L 138.6 86.5 L 147.0 84.5 L 155.0 82.4 L 161.82100734710693 80.56357498168946 L 161.8 80.5 L 161.8627082824707 80.55234775543212 L 162.8 80.3 L 163.10946407318116 81.59311790466309 L 173.3 90.1 L 173.6 93.1 L 169.32443552017213 91.08098344802856 L 165.6 92.0 L 157.5 93.5 L 149.1 95.0 L 140.4 96.4 L 131.5 97.58666667938232 L 131.5 120.8 L 152.1 120.8 L 162.1 110.8 L 174.1 120.8 L 174.1 124.8 L 131.5 124.8 L 131.5 153.5 L 162.4 153.5 L 172.4 143.5 L 184.4 153.5 L 184.4 157.5 L 66.5 157.5 Z M 97.7 23.7 L 153.2 23.7 L 159.2 18.7 L 170.2 27.7 L 165.2 31.7 L 165.2 73.0 L 153.2 79.0 L 153.2 73.0 L 97.7 73.0 L 97.7 80.0 L 85.7 86.0 L 85.7 17.7 Z M 97.7 27.7 L 97.7 69.0 L 153.2 69.0 L 153.2 27.7 Z M 46.0 50.2 L 44.0 47.2 L 41.8 44.2 L 39.3 41.2 L 36.6 38.2 L 33.7 35.2 L 30.5 32.2 L 27.1 29.2 L 23.4 26.2 L 24.3 24.6 L 28.8 26.4 L 33.1 28.2 L 37.2 30.3 L 41.1 32.7 L 44.8 35.2 L 48.2 37.9 L 51.4 40.7 L 54.4 43.8 L 57.1 47.0 L 59.6 50.3 L 60.2 54.9 L 57.5 58.5 L 52.9 59.1 L 49.3 56.4 L 47.7 53.3 Z " />
</g>
</svg>
