<svg xmlns="http://www.w3.org/2000/svg" xmlns:xlink="http://www.w3.org/1999/xlink" version="1.1" baseProfile="full" viewBox="0 0 200 200" width="200" height="200">
<g fill="black">
<path d="M 171.1 59.1 L 173.1 59.1 L 171.1 72.1 L 173.8 73.9 L 175.6 76.6 L 173.8 79.3 L 171.5 80.83333330154419 L 183.1 90.5 L 183.1 94.5 L 139.19534883499145 94.5 L 136.2 96.8 L 132.9 99.3 L 129.4 101.6 L 126.40568437576295 103.41234893798828 L 129.4 105.2 L 135.1 109.6 L 139.8 114.5 L 142.37186784744262 117.86321182250977 L 145.2 115.4 L 147.9 112.5 L 150.4 109.8 L 152.8 107.3 L 155.1 105.0 L 157.2 102.8 L 159.1 100.8 L 160.8 98.9 L 162.3 97.1 L 162.97164907455445 96.27335500717163 L 162.9 96.2 L 163.37250003814697 95.78000001907348 L 163.6 95.5 L 163.63709564208983 95.54480381011963 L 163.8 95.4 L 171.3 104.8 L 171.7 108.4 L 167.4527777671814 106.8555555343628 L 167.2 107.0 L 164.9 108.3 L 162.4 109.6 L 159.7 111.1 L 156.8 112.6 L 153.7 114.2 L 150.4 115.9 L 146.8 117.5 L 143.54576272964476 119.39830513000489 L 143.7 119.6 L 145.10886917114257 122.18292684555054 L 148.6 123.0 L 153.1 124.1 L 157.4 125.5 L 161.4 127.0 L 165.2 128.6 L 168.9 130.4 L 172.3 132.4 L 175.5 134.4 L 178.5 136.7 L 181.3 139.0 L 182.8 143.3 L 180.9 147.5 L 176.6 149.0 L 172.4 147.1 L 170.7 144.8 L 168.7 142.4 L 166.4 140.1 L 163.9 137.8 L 161.1 135.4 L 158.0 133.1 L 154.7 130.8 L 151.2 128.4 L 147.4 125.9 L 146.88506593704224 125.61113452911377 L 148.8 130.9 L 149.8 136.9 L 149.7 143.1 L 148.6 149.4 L 146.5 155.8 L 145.83636360168458 155.8 L 144.8 157.7 L 143.4 159.8 L 141.8 161.7 L 140.0 163.4 L 138.1 164.8 L 135.9 166.0 L 133.6 166.9 L 131.3 167.5 L 128.8 167.9 L 126.3 168.0 L 126.3 162.0 L 106.3 159.0 L 106.3 156.0 L 126.3 156.0 L 127.6 155.9 L 128.9 155.7 L 129.9 155.5 L 130.8 155.1 L 131.6 154.7 L 132.4 154.1 L 132.9800000190735 153.5199999809265 L 134.6 150.1 L 136.7 145.7 L 138.1 141.4 L 138.34955253601075 139.6115403175354 L 134.5 141.5 L 128.8 144.1 L 122.8 146.7 L 116.4 149.1 L 109.7 151.6 L 102.6 154.0 L 95.2 156.2 L 87.3 158.3 L 79.1 160.2 L 78.5 158.5 L 86.0 154.8 L 93.3 151.2 L 100.2 147.9 L 106.8 144.6 L 113.0 141.4 L 118.8 138.3 L 124.3 135.2 L 129.4 132.1 L 134.1 129.1 L 137.4348023414612 126.77339372634887 L 136.4 123.6 L 134.73662424087524 120.20394105911255 L 133.7 120.8 L 129.5 123.1 L 125.0 125.2 L 120.2 127.3 L 115.2 129.3 L 109.8 131.2 L 104.2 133.0 L 98.3 134.7 L 92.0 136.1 L 85.4 137.3 L 84.9 135.6 L 90.8 132.6 L 96.4 129.7 L 101.8 126.9 L 106.8 124.3 L 111.6 121.6 L 116.0 119.0 L 120.2 116.4 L 124.0 113.8 L 127.5 111.3 L 128.36168327331544 110.57729787826538 L 126.6 108.3 L 123.61219511032104 104.89390239715576 L 121.4 106.0 L 117.0 108.1 L 112.2 110.0 L 107.1 111.8 L 101.7 113.5 L 95.9 114.9 L 89.7 116.2 L 89.1 114.5 L 94.6 111.5 L 99.7 108.6 L 104.5 105.9 L 108.9 103.3 L 113.0 100.6 L 116.7 98.1 L 120.1 95.5 L 121.26000003814697 94.5 L 84.3 94.5 L 84.3 99.5 L 83.8 108.6 L 83.0 117.2 L 81.9 125.2 L 80.4 132.7 L 78.5 139.7 L 76.2 146.1 L 73.6 151.9 L 70.6 157.1 L 67.54574632644653 160.93963317871095 L 70.9 163.1 L 78.1 166.2 L 87.1 168.7 L 98.4 170.4 L 112.7 171.5 L 130.4 171.9 L 151.9 171.5 L 177.7 170.4 L 189.0 169.9 L 178.2 183.5 L 152.1 184.0 L 130.2 183.7 L 112.0 182.5 L 97.0 180.6 L 84.7 177.7 L 74.9 173.9 L 67.0 169.2 L 61.0 163.7 L 56.3 157.3 L 54.15256481170654 153.12443151474 L 52.0 155.4 L 48.6 158.9 L 45.0 162.3 L 37.8 168.7 L 34.3 171.8 L 30.7 174.8 L 27.2 177.7 L 23.444505500793458 180.70439558029176 L 23.5 184.7 L 20.2 183.3 L 11.7 174.6 L 13.4 173.4 L 17.2 171.2 L 28.9 164.3 L 41.2 157.1 L 44.0 155.60232553482055 L 44.0 95.0 L 14.0 95.0 L 14.0 91.0 L 44.0 91.0 L 50.0 86.0 L 61.0 95.0 L 56.0 99.0 L 56.0 151.03207550048828 L 59.6 154.7 L 64.23142042160035 158.64528408050538 L 65.8 154.6 L 67.5 149.4 L 69.0 143.8 L 70.2 137.7 L 71.2 131.1 L 71.9 124.0 L 72.3 116.3 L 72.5 108.2 L 72.3 99.5 L 72.3 34.3 L 84.3 40.3 L 114.2 40.3 L 114.2 12.3 L 126.2 14.3 L 129.2 16.3 L 126.2 18.1 L 126.2 24.5 L 149.4181818008423 24.5 L 157.6 15.5 L 167.6 24.5 L 167.6 28.5 L 126.2 28.5 L 126.2 40.3 L 169.2 40.3 L 169.77333335876466 39.8222222328186 L 169.9 39.4 L 170.12852230072022 39.526231384277345 L 175.2 35.3 L 186.2 44.3 L 181.2 47.3 L 177.0418604850769 49.03255815505982 L 174.6 51.8 L 169.6 56.8 L 167.8 58.5 L 165.8 60.2 L 164.3 62.2 L 162.7 61.2 L 163.9 59.0 L 164.6 56.5 L 166.0 51.9 L 167.4 47.5 L 168.1 45.4 L 168.43000001907347 44.3 L 122.1 44.3 L 122.1 59.25 L 137.2536612510681 57.63660478591919 L 146.2 46.6 L 159.2 55.3 L 159.6 59.3 L 122.1 63.29258756637573 L 122.1 66.6 L 122.0 67.9 L 122.0 68.8 L 122.1 69.5 L 122.2 70.0 L 122.3 70.4 L 122.5 70.8 L 122.9 71.2 L 123.7 71.6 L 124.7 71.9 L 126.1 72.1 L 166.6 72.1 Z M 46.0 50.2 L 44.0 47.2 L 41.8 44.2 L 39.3 41.2 L 36.6 38.2 L 33.7 35.2 L 30.5 32.2 L 27.1 29.2 L 23.4 26.2 L 24.3 24.6 L 28.8 26.4 L 33.1 28.2 L 37.2 30.3 L 41.1 32.7 L 44.8 35.2 L 48.2 37.9 L 51.4 40.7 L 54.4 43.8 L 57.1 47.0 L 59.6 50.3 L 60.2 54.9 L 57.5 58.5 L 52.9 59.1 L 49.3 56.4 L 47.7 53.3 Z M 121.3 80.9 L 119.0 80.3 L 116.9 79.3 L 114.9 77.8 L 113.2 76.0 L 111.9 73.9 L 111.0 71.6 L 110.4 69.2 L 110.1 66.6 L 110.1 64.57021560668946 L 85.4 67.2 L 85.0 63.2 L 110.1 60.52762804031372 L 110.1 44.3 L 84.3 44.3 L 84.3 90.5 L 161.1 90.5 L 170.5 81.1 L 126.1 81.1 L 123.7 81.2 Z " />
</g>
</svg>
