<svg xmlns="http://www.w3.org/2000/svg" xmlns:xlink="http://www.w3.org/1999/xlink" version="1.1" baseProfile="full" viewBox="0 0 200 200" width="200" height="200">
<g fill="black">
<path d="M 83.2 180.0 L 130.0 180.0 L 130.0 159.0 L 96.4 159.0 L 96.4 155.0 L 130.0 155.0 L 130.0 134.0 L 89.8 134.0 L 89.8 130.0 L 130.0 130.0 L 130.0 112.0 L 105.7 112.0 L 105.7 115.0 L 93.7 121.0 L 93.7 74.0 L 105.7 80.0 L 130.0 80.0 L 130.0 61.0 L 122.2 61.0 L 122.2 64.0 L 110.2 70.0 L 110.2 39.0 L 83.2 39.0 L 83.2 35.0 L 110.2 35.0 L 110.2 14.0 L 122.2 16.0 L 125.2 18.0 L 122.2 19.8 L 122.2 35.0 L 149.8 35.0 L 149.8 14.0 L 161.8 16.0 L 164.8 18.0 L 161.8 19.8 L 161.8 35.0 L 166.8 35.0 L 176.8 25.0 L 188.8 35.0 L 188.8 39.0 L 161.8 39.0 L 161.8 63.0 L 149.8 69.0 L 149.8 61.0 L 142.0 61.0 L 142.0 80.0 L 166.3 80.0 L 172.3 75.0 L 183.3 84.0 L 178.3 88.0 L 178.3 114.0 L 166.3 120.0 L 166.3 112.0 L 142.0 112.0 L 142.0 130.0 L 164.01818180084229 130.0 L 172.2 121.0 L 182.2 130.0 L 182.2 134.0 L 142.0 134.0 L 142.0 155.0 L 153.6 155.0 L 163.6 145.0 L 175.6 155.0 L 175.6 159.0 L 142.0 159.0 L 142.0 180.0 L 166.8 180.0 L 176.8 170.0 L 188.8 180.0 L 188.8 184.0 L 83.2 184.0 Z M 72.7 51.4 L 70.9 48.3 L 68.8 45.1 L 66.5 42.0 L 63.9 38.9 L 61.1 35.7 L 58.0 32.6 L 54.7 29.4 L 54.52052278518677 29.240464687347412 L 52.1 34.4 L 48.0 42.1 L 43.7 49.5 L 39.1 56.6 L 34.3 63.4 L 30.795530700683592 67.79776535034179 L 39.2 72.0 L 47.3 72.0 L 47.3 47.0 L 59.3 49.0 L 62.3 51.0 L 59.3 52.8 L 59.3 72.0 L 66.6 72.0 L 72.6 67.0 L 83.6 76.0 L 78.6 80.0 L 78.6 123.0 L 66.6 129.0 L 66.6 123.0 L 39.2 123.0 L 39.2 159.8526315689087 L 44.5 157.9 L 50.5 155.8 L 56.9 153.6 L 65.9 150.6 L 65.1 149.0 L 63.1 145.6 L 61.0 142.2 L 58.7 138.9 L 56.3 135.5 L 53.5 132.3 L 54.7 130.9 L 58.4 133.1 L 62.1 135.5 L 65.5 138.2 L 68.7 141.1 L 71.7 144.3 L 74.4 147.7 L 77.0 151.3 L 79.4 155.1 L 81.5 159.0 L 83.4 163.2 L 83.1 167.7 L 79.7 170.8 L 75.1 170.4 L 72.1 167.1 L 71.0 163.3 L 69.8 159.6 L 68.4 156.0 L 67.24231309890747 153.39520454406738 L 65.1 154.8 L 59.1 158.5 L 53.3 161.8 L 47.6 164.9 L 42.1 167.8 L 36.8 170.4 L 31.8 172.9 L 26.9 175.2 L 22.2 177.3 L 21.59820623397827 177.57354259490967 L 20.6 181.4 L 17.8 179.3 L 11.9 168.6 L 13.8 168.0 L 18.3 166.7 L 23.0 165.2 L 27.2 163.85600004196166 L 27.2 72.05925922393799 L 23.8 75.9 L 18.1 81.5 L 12.0 86.6 L 10.7 85.3 L 15.2 79.0 L 19.6 72.5 L 23.9 65.9 L 28.0 59.2 L 31.9 52.2 L 35.6 45.0 L 39.1 37.6 L 42.3 29.9 L 45.4 22.0 L 48.2 13.8 L 48.22965879440308 13.811023616790772 L 48.7 12.4 L 59.5 18.0 L 61.6 20.9 L 57.935432529449464 21.607197189331053 L 55.9 26.3 L 55.881726551055905 26.338951206207277 L 56.5 26.6 L 60.9 28.7 L 64.9 31.0 L 68.7 33.6 L 72.3 36.3 L 75.6 39.2 L 78.7 42.3 L 81.5 45.6 L 84.0 49.0 L 86.3 52.6 L 86.5 57.2 L 83.5 60.7 L 78.9 60.9 L 75.5 57.8 L 74.2 54.6 Z M 39.2 99.0 L 39.2 119.0 L 66.6 119.0 L 66.6 99.0 Z M 105.7 84.0 L 105.7 108.0 L 130.0 108.0 L 130.0 84.0 Z M 142.0 84.0 L 142.0 108.0 L 166.3 108.0 L 166.3 84.0 Z M 39.2 95.0 L 66.6 95.0 L 66.6 76.0 L 39.2 76.0 Z M 122.2 39.0 L 122.2 57.0 L 149.8 57.0 L 149.8 39.0 Z " />
</g>
</svg>
