<svg xmlns="http://www.w3.org/2000/svg" xmlns:xlink="http://www.w3.org/1999/xlink" version="1.1" baseProfile="full" viewBox="0 0 200 200" width="200" height="200">
<g fill="black">
<path d="M 181.8 147.0 L 183.8 147.0 L 181.8 172.0 L 185.4 174.4 L 187.8 178.0 L 185.4 181.6 L 181.8 184.0 L 153.1 184.0 L 150.5 183.8 L 148.0 183.4 L 145.6 182.6 L 143.3 181.3 L 141.3 179.7 L 139.7 177.7 L 138.4 175.4 L 137.6 173.0 L 137.2 170.5 L 137.1 168.0 L 137.1 132.0 L 115.875 132.0 L 124.5 135.0 L 127.1 137.5 L 123.45003414154053 138.89362335205078 L 122.1 143.9 L 119.1 152.1 L 115.3 159.5 L 110.8 166.2 L 105.6 172.1 L 99.8 177.1 L 93.3 181.2 L 86.2 184.4 L 78.5 186.6 L 70.3 187.8 L 70.0 186.1 L 77.3 183.0 L 83.9 179.5 L 89.8 175.6 L 94.9 171.2 L 99.4 166.3 L 103.2 160.9 L 106.4 154.8 L 109.1 148.2 L 111.2 140.9 L 112.51228876113892 133.90112648010253 L 112.5 133.9 L 112.82758617401123 132.0 L 86.4 132.0 L 86.4 128.0 L 157.1 128.0 L 167.1 118.0 L 179.1 128.0 L 179.1 132.0 L 149.1 132.0 L 149.1 169.2 L 149.3 170.1 L 149.6 171.0 L 150.0 171.4 L 150.9 171.7 L 151.8 171.9 L 153.1 172.0 L 175.8 172.0 Z M 65.7 51.2 L 64.2 48.0 L 62.4 44.9 L 60.5 41.8 L 58.3 38.7 L 55.8 35.6 L 53.2 32.5 L 50.708700847625735 29.652800941467284 L 48.8 34.2 L 45.2 41.9 L 41.3 49.3 L 37.2 56.4 L 32.9 63.2 L 29.47613639831543 68.03806819915772 L 37.4 72.0 L 43.2 72.0 L 43.2 47.0 L 55.2 49.0 L 58.2 51.0 L 55.2 52.8 L 55.2 72.0 L 60.3 72.0 L 66.3 67.0 L 77.3 76.0 L 72.3 80.0 L 72.3 123.0 L 60.3 129.0 L 60.3 123.0 L 37.4 123.0 L 37.4 159.45098037719725 L 41.1 158.0 L 46.5 155.9 L 52.1 153.6 L 58.0 151.4 L 60.03373785018921 150.68980579376222 L 59.2 148.8 L 57.5 145.4 L 55.7 142.1 L 53.8 138.8 L 51.7 135.5 L 49.4 132.3 L 50.6 131.0 L 53.9 133.3 L 57.3 135.7 L 60.4 138.4 L 63.3 141.4 L 66.0 144.5 L 68.5 147.9 L 70.8 151.5 L 72.9 155.3 L 74.8 159.2 L 76.6 163.3 L 76.1 167.9 L 72.6 170.8 L 68.0 170.3 L 65.1 166.8 L 64.2 163.0 L 63.2 159.3 L 62.0 155.7 L 61.234024906158446 153.63775930404663 L 59.8 154.7 L 54.6 158.4 L 49.5 161.7 L 44.5 164.8 L 39.7 167.7 L 37.4 168.97234039306642 L 37.4 169.0 L 37.35 169.0 L 35.0 170.3 L 30.6 172.8 L 26.3 175.1 L 22.2 177.2 L 22.03950614929199 177.2823045730591 L 21.2 181.2 L 18.3 179.2 L 12.0 168.7 L 13.8 168.0 L 17.8 166.7 L 22.0 165.3 L 25.4 164.06363639831542 L 25.4 73.25102043151855 L 23.4 75.7 L 18.2 81.4 L 12.7 86.5 L 11.3 85.4 L 15.2 79.0 L 19.0 72.6 L 22.7 66.1 L 26.3 59.4 L 29.7 52.4 L 32.9 45.3 L 36.0 37.8 L 38.8 30.2 L 41.5 22.2 L 44.0 14.0 L 44.018072319030765 14.006024074554443 L 44.5 12.5 L 55.4 17.8 L 57.6 20.6 L 53.99810962677002 21.43615312576294 L 52.2 26.1 L 51.97310676574707 26.640539836883544 L 52.3 26.8 L 56.2 28.9 L 59.9 31.2 L 63.3 33.8 L 66.5 36.5 L 69.5 39.4 L 72.2 42.5 L 74.8 45.8 L 77.1 49.2 L 79.1 52.8 L 79.1 57.4 L 76.0 60.7 L 71.4 60.7 L 68.1 57.5 L 67.0 54.3 Z M 83.6 112.9 L 87.7 111.9 L 92.2 110.7 L 96.9 109.4 L 101.9 108.0 L 102.0 107.97358493804931 L 102.0 87.0 L 85.5 87.0 L 85.5 83.0 L 102.0 83.0 L 102.0 63.0 L 114.0 65.0 L 117.0 67.0 L 114.0 68.8 L 114.0 83.0 L 117.1777777671814 83.0 L 123.4 76.0 L 131.4 83.0 L 131.4 87.0 L 114.0 87.0 L 114.0 104.79491529464721 L 118.7 103.6 L 124.9 102.0 L 131.4 100.5 L 138.2 99.1 L 138.9 100.8 L 132.7 104.1 L 126.7 107.1 L 120.9 109.8 L 115.3 112.3 L 110.0 114.6 L 105.0 116.8 L 100.2 118.9 L 95.7 120.8 L 91.4 122.6 L 91.29093828201295 122.64635124206544 L 90.3 126.5 L 87.4 124.3 L 81.7 113.6 Z M 37.4 99.0 L 37.4 119.0 L 60.3 119.0 L 60.3 99.0 Z M 129.6 110.0 L 148.8 110.0 L 148.8 87.0 L 135.9 87.0 L 135.9 83.0 L 148.8 83.0 L 148.8 63.0 L 160.8 65.0 L 163.8 67.0 L 160.8 68.8 L 160.8 83.0 L 164.87777776718139 83.0 L 171.1 76.0 L 179.1 83.0 L 179.1 87.0 L 160.8 87.0 L 160.8 110.0 L 166.3181818008423 110.0 L 174.5 101.0 L 184.5 110.0 L 184.5 114.0 L 129.6 114.0 Z M 37.4 95.0 L 60.3 95.0 L 60.3 76.0 L 37.4 76.0 Z M 79.2 57.0 L 125.4 57.0 L 125.4 36.0 L 91.8 36.0 L 91.8 32.0 L 125.4 32.0 L 125.4 12.0 L 137.4 14.0 L 140.4 16.0 L 137.4 17.8 L 137.4 32.0 L 152.6 32.0 L 162.6 22.0 L 174.6 32.0 L 174.6 36.0 L 137.4 36.0 L 137.4 57.0 L 167.21818180084227 57.0 L 175.4 48.0 L 185.4 57.0 L 185.4 61.0 L 79.2 61.0 Z " />
</g>
</svg>
