<svg xmlns="http://www.w3.org/2000/svg" xmlns:xlink="http://www.w3.org/1999/xlink" version="1.1" baseProfile="full" viewBox="0 0 200 200" width="200" height="200">
<g fill="black">
<path d="M 169.7 172.7 L 167.4 169.1 L 165.1 165.6 L 162.5 162.3 L 159.9 159.1 L 157.0 156.0 L 154.1 153.1 L 151.0 150.1 L 149.96677112579346 149.16363639831542 L 147.0 152.0 L 137.5 159.9 L 127.5 167.1 L 117.2 173.5 L 106.5 179.2 L 95.3 183.9 L 83.7 187.8 L 83.1 186.1 L 93.7 180.5 L 103.9 174.5 L 113.7 168.0 L 123.0 161.0 L 132.0 153.4 L 140.6 145.2 L 148.7 136.5 L 156.5 127.1 L 163.8 117.1 L 170.8 106.5 L 171.3 105.7 L 180.8 113.1 L 182.3 116.4 L 178.5094669342041 116.27150735855102 L 173.0 123.9 L 164.8 133.9 L 156.1 143.3 L 152.24273977279663 146.9877103805542 L 152.8 147.2 L 157.0 149.0 L 160.9 151.2 L 164.7 153.7 L 168.3 156.5 L 171.8 159.6 L 175.1 162.9 L 178.3 166.5 L 181.4 170.3 L 184.2 174.4 L 184.8 178.9 L 182.0 182.5 L 177.5 183.1 L 173.8 180.4 L 171.8 176.4 Z M 58.3 174.8 L 68.3 174.8 L 69.5 174.7 L 70.5 174.5 L 71.0 174.3 L 71.4 174.2 L 71.6 174.0 L 71.7 173.8 L 71.9 173.5 L 72.1 172.9 L 72.2 172.0 L 72.3 170.8 L 72.3 151.2 L 40.1 151.2 L 40.1 181.6 L 28.1 187.6 L 28.1 91.6 L 40.1 97.6 L 72.3 97.6 L 78.3 92.6 L 83.14285717010497 96.56233768463134 L 84.1 94.3 L 85.3 89.1 L 86.3 84.5 L 86.7 82.4 L 87.1 80.4 L 87.27368421554566 79.3 L 25.38378381729126 79.3 L 25.6 80.9 L 25.8 84.4 L 25.8 87.6 L 25.7 90.5 L 25.3 93.3 L 24.7 95.9 L 23.8 98.4 L 22.3 100.8 L 18.1 102.4 L 13.8 100.7 L 12.2 96.4 L 13.9 92.2 L 14.6 92.0 L 15.5 91.4 L 16.4 90.1 L 17.5 88.4 L 18.4 86.2 L 19.4 83.6 L 20.3 80.5 L 21.1 77.1 L 21.9 73.2 L 22.3 69.0 L 24.1 68.9 L 24.5 73.2 L 24.814999961853026 75.3 L 28.4 75.3 L 28.4 16.5 L 39.4 22.0 L 73.0 22.0 L 78.5 17.0 L 89.0 26.0 L 84.0 29.5 L 84.0 75.3 L 87.4 75.3 L 93.4 70.3 L 104.4 79.3 L 102.74254140853881 80.29447517395019 L 105.4 81.3 L 109.0 83.0 L 112.3 85.0 L 115.5 87.3 L 116.29005718231201 87.96262855529785 L 116.5 87.6 L 118.4 83.8 L 120.4 80.1 L 122.2 76.5 L 123.9 73.0 L 125.5 69.6 L 127.0 66.2 L 129.6 59.6 L 130.29877672195434 57.43379201889038 L 130.2 57.4 L 130.5777777671814 56.56888885498047 L 130.6 56.5 L 130.60758619308473 56.50331029891968 L 130.83636360168458 56.0 L 95.0 56.0 L 95.0 52.0 L 165.2 52.0 L 175.2 42.0 L 187.2 52.0 L 187.2 56.0 L 132.5639344215393 56.0 L 141.6 61.3 L 143.6 64.3 L 139.47651081085206 64.86875715255738 L 137.7 67.8 L 135.5 71.0 L 133.2 74.2 L 130.7 77.3 L 128.0 80.5 L 125.2 83.6 L 122.2 86.6 L 118.9 89.5 L 118.52718124389648 89.83892621994019 L 118.6 89.9 L 121.4 92.7 L 124.1 95.8 L 126.6 99.1 L 128.9 102.6 L 129.2 107.2 L 126.2 110.6 L 121.7 110.9 L 118.2 107.9 L 116.9 104.7 L 115.4 101.6 L 113.8 98.6 L 112.0 95.7 L 110.0 92.9 L 107.8 90.2 L 105.5 87.6 L 102.9 85.1 L 100.2 82.5 L 99.70243902206421 82.11853656768798 L 99.4 82.3 L 95.91666669845581 83.75138893127442 L 95.6 84.2 L 94.3 85.9 L 92.9 87.6 L 91.4 89.5 L 89.8 91.4 L 88.0 93.4 L 86.1 95.4 L 84.6 97.7 L 84.42857141494751 97.61428575515747 L 89.3 101.6 L 84.3 105.6 L 84.3 170.8 L 84.2 173.3 L 83.7 175.8 L 82.9 178.2 L 81.7 180.5 L 80.1 182.5 L 78.0 184.2 L 75.8 185.4 L 73.4 186.2 L 70.9 186.6 L 68.3 186.8 L 68.3 180.8 L 58.3 177.8 Z M 170.3 78.8 L 171.9 82.0 L 168.22329635620116 82.06339139938355 L 164.0 88.7 L 157.2 98.1 L 150.1 106.9 L 142.6 115.3 L 134.6 123.2 L 126.3 130.5 L 117.6 137.2 L 108.4 143.4 L 98.8 148.9 L 88.8 153.7 L 87.9 152.2 L 96.8 145.7 L 105.3 139.0 L 113.5 132.1 L 121.2 124.8 L 128.6 117.2 L 135.6 109.1 L 142.3 100.7 L 148.5 91.8 L 154.4 82.6 L 159.9 72.8 L 160.4 71.9 Z M 40.1 126.4 L 40.1 147.2 L 72.3 147.2 L 72.3 126.4 Z M 40.1 101.6 L 40.1 122.4 L 72.3 122.4 L 72.3 101.6 Z M 39.4 26.0 L 39.4 75.3 L 51.6 75.3 L 51.6 40.0 L 61.6 45.0 L 73.0 45.0 L 73.0 26.0 Z M 61.6 49.0 L 61.6 75.3 L 73.0 75.3 L 73.0 49.0 Z M 176.4 25.0 L 176.4 29.0 L 104.2 29.0 L 104.2 25.0 L 154.4 25.0 L 164.4 15.0 Z " />
</g>
</svg>
