<svg xmlns="http://www.w3.org/2000/svg" xmlns:xlink="http://www.w3.org/1999/xlink" version="1.1" baseProfile="full" viewBox="0 0 200 200" width="200" height="200">
<g fill="black">
<path d="M 82.0 95.0 L 77.0 98.0 L 75.65279998779297 98.56133337020874 L 74.1 104.6 L 70.5 114.7 L 66.1 124.2 L 60.9 133.2 L 54.9 141.7 L 48.1 149.5 L 40.6 156.8 L 32.3 163.5 L 23.3 169.5 L 13.4 174.7 L 12.5 173.2 L 21.1 166.4 L 28.9 159.4 L 36.0 152.1 L 42.4 144.6 L 48.0 136.7 L 52.9 128.5 L 57.0 119.9 L 60.4 111.0 L 63.1 101.6 L 64.44693880081176 95.0 L 16.0 95.0 L 16.0 91.0 L 65.0 91.0 L 71.0 86.0 Z M 154.5 156.8 L 144.7 148.2 L 135.9 138.8 L 128.0 128.8 L 121.2 118.0 L 115.3 106.5 L 110.5 94.4 L 106.8 81.6 L 106.0 77.28000001907348 L 106.0 173.0 L 105.8 175.5 L 105.4 178.0 L 104.6 180.4 L 103.3 182.7 L 101.7 184.7 L 99.7 186.3 L 97.4 187.6 L 95.0 188.4 L 92.5 188.8 L 90.0 189.0 L 90.0 183.0 L 70.0 180.0 L 70.0 177.0 L 90.0 177.0 L 91.2 176.9 L 92.1 176.7 L 93.0 176.4 L 93.4 176.0 L 93.7 175.1 L 93.9 174.2 L 94.0 173.0 L 94.0 62.0 L 34.0 62.0 L 34.0 58.0 L 94.0 58.0 L 100.0 53.0 L 111.0 62.0 L 106.0 66.0 L 106.0 67.72222223281861 L 106.1 67.7 L 110.8 80.3 L 115.9 92.2 L 120.66524391174316 101.1651198387146 L 124.3 97.9 L 130.0 92.8 L 135.5 88.1 L 140.7 83.6 L 145.7 79.3 L 150.4 75.1 L 154.8 71.1 L 158.9 67.3 L 162.7 63.6 L 166.2 60.1 L 166.23862066268921 60.14344825744629 L 166.4 60.0 L 174.2 69.1 L 174.7 72.7 L 171.07881422042846 71.53604745864868 L 170.1 72.3 L 165.7 75.5 L 161.1 78.9 L 156.1 82.4 L 150.8 86.0 L 145.3 89.7 L 139.4 93.4 L 133.1 97.2 L 126.5 101.0 L 121.88619756698608 103.43872413635253 L 128.2 113.6 L 135.5 123.1 L 143.4 131.9 L 152.2 140.0 L 161.6 147.4 L 171.9 154.1 L 183.0 160.1 L 188.1 162.8 L 176.9 171.8 L 165.2 164.7 Z M 112.8 34.6 L 106.4 32.4 L 99.8 30.3 L 93.1 28.4 L 86.2 26.5 L 79.1 24.8 L 71.9 23.2 L 64.5 21.6 L 56.9 19.9 L 57.0 18.1 L 64.9 17.8 L 72.6 17.9 L 80.1 18.3 L 87.6 19.1 L 94.9 20.1 L 102.0 21.3 L 109.1 22.7 L 115.9 24.3 L 122.7 26.2 L 129.3 28.3 L 132.6 31.5 L 132.8 36.0 L 129.6 39.3 L 125.0 39.5 L 119.0 37.0 Z " />
</g>
</svg>
